<svg width="510" height="678" viewBox="0 0 510 678" fill="none" xmlns="http://www.w3.org/2000/svg">
<mask id="mask0_2038_59257" style="mask-type:alpha" maskUnits="userSpaceOnUse" x="0" y="0" width="510" height="678">
<rect width="510" height="678" rx="30" fill="#ED1C24"/>
</mask>
<g mask="url(#mask0_2038_59257)">
<g style="mix-blend-mode:multiply">
<path d="M278.63 1128.9C276.376 1132.7 271.552 1133.82 267.854 1131.41L-812.065 425.114C-815.763 422.695 -816.933 417.654 -814.68 413.853L-513.255 -94.5011C-509.057 -101.582 -497.982 -98.0383 -497.733 -89.6459C-491.66 114.923 -361.182 319.831 -222.172 397.212C21.1996 532.667 555.655 423.362 782.639 236.155L799.637 219.384C806.249 212.86 816.575 221.655 811.786 229.732L278.63 1128.9Z" fill="white"/>
<path d="M278.627 1128.9C276.373 1132.7 271.549 1133.83 267.851 1131.41L-812.068 425.115C-815.765 422.696 -816.936 417.655 -814.683 413.855L-513.258 -94.5C-509.06 -101.581 -497.985 -98.0372 -497.736 -89.6448C-491.663 114.924 -361.185 319.832 -222.175 397.213C9.18119 525.981 559.372 378.095 808.133 202.354C815.353 197.253 825.268 206.99 820.685 214.72L278.627 1128.9Z" fill="url(#paint0_radial_2038_59257)"/>
<path d="M278.641 1128.91C276.388 1132.71 271.564 1133.83 267.866 1131.41L-413.776 685.603C-416.512 683.814 -417.989 680.69 -417.428 677.42C-410.454 636.756 -362.305 370.956 -287.101 320.407C-283.111 317.725 -277.896 320.559 -276.461 325.345C-146.983 757.164 545.199 478.81 682.365 418.81C689.494 415.692 696.388 424.378 692.335 431.213L278.641 1128.91Z" fill="white"/>
<path d="M278.638 1128.91C276.385 1132.71 271.56 1133.83 267.863 1131.41L-413.779 685.605C-416.515 683.816 -417.992 680.691 -417.431 677.422C-410.457 636.757 -362.308 370.958 -287.104 320.409C-283.114 317.727 -277.901 320.555 -276.468 325.341C-147.087 757.455 537.098 492.824 672.423 435.677C679.546 432.669 686.342 441.317 682.314 448.111L278.638 1128.91Z" fill="url(#paint1_linear_2038_59257)"/>
<path d="M274.555 1135.77C274.556 1135.78 274.548 1135.78 274.541 1135.78L-413.344 685.887C-416.292 683.959 -417.761 680.458 -416.864 677.009C-406.458 637.002 -341.236 396.154 -268.203 352.463C-264.286 350.12 -259.457 352.624 -257.895 357.108C-154.76 653.213 448.068 649.256 550.29 646.42C556.638 646.244 560.456 653.592 557.149 659.169L274.556 1135.76C274.554 1135.77 274.554 1135.77 274.555 1135.77Z" fill="url(#paint2_radial_2038_59257)"/>
<path d="M-43.6628 764.915C-9.79894 690.71 55.4391 649.606 72.213 676.862C88.5219 703.367 83.9705 787.675 66.0711 849.798C42.7951 911.981 -52.1406 783.512 -43.6628 764.915Z" fill="white"/>
<path d="M-41.7526 768.143C-7.59644 695.15 54.0153 648.801 72.7165 679.084C92.9821 711.882 84.1747 789.105 65.8901 850.103C42.3074 911.234 -50.3107 786.431 -41.7526 768.143Z" fill="url(#paint3_radial_2038_59257)"/>
<path d="M-583.155 574.828C-588.719 571.188 -588.063 562.485 -582.046 560.005C-518.228 533.693 -269.084 422.155 -265.728 283.146C-250.648 586.533 -131.859 720.184 71.3041 831.35C73.1406 832.355 74.6005 834.075 74.675 836.217C75.3629 856 51.2431 925.264 29.1163 965.743C26.9938 969.626 22.1726 970.726 18.4749 968.307L-583.155 574.828Z" fill="white"/>
<path d="M-578.888 577.621C-584.413 574.007 -583.82 565.392 -577.874 562.858C-532.183 543.388 -389.356 478.115 -313.467 393.065C-306.909 385.716 -252.551 397.475 -250.696 407.45C-209.835 627.13 -102.582 736.353 71.4544 831.456C73.3021 832.465 74.7697 834.202 74.8341 836.356C75.4262 856.141 51.2371 925.294 29.1136 965.744C26.9903 969.626 22.169 970.726 18.4714 968.307L-578.888 577.621Z" fill="url(#paint4_radial_2038_59257)"/>
<path d="M25.1836 972.696C25.1752 972.69 25.1653 972.695 25.1692 972.686C25.314 972.334 114.16 756.221 72.2124 676.863C160.83 823.002 314.943 901.379 399.043 892.612C406.41 891.843 413.034 900.999 409.188 907.522L278.649 1128.89C276.4 1132.71 271.567 1133.84 267.863 1131.41L25.1836 972.696Z" fill="url(#paint5_linear_2038_59257)"/>
<path d="M33.3349 978.026C29.9792 975.831 28.6033 971.526 30.125 967.789C44.7332 931.907 113.424 754.895 76.8976 684.418C162.98 828.799 322.527 891.026 407.066 879.254C414.438 878.227 421.128 887.344 417.261 893.899L278.635 1128.89C276.387 1132.7 271.554 1133.83 267.851 1131.4L33.3349 978.026Z" fill="url(#paint6_linear_2038_59257)"/>
</g>
</g>
<defs>
<radialGradient id="paint0_radial_2038_59257" cx="0" cy="0" r="1" gradientTransform="matrix(800.656 529.79 -384.118 640.335 24.1435 -96.6645)" gradientUnits="userSpaceOnUse">
<stop offset="0.42" stop-color="white"/>
<stop offset="0.56" stop-color="#FBFBFB"/>
<stop offset="0.69" stop-color="#F0F0F0"/>
<stop offset="0.81" stop-color="#DFDFDF"/>
<stop offset="0.93" stop-color="#C6C6C6"/>
<stop offset="1" stop-color="#B3B3B3"/>
</radialGradient>
<linearGradient id="paint1_linear_2038_59257" x1="130.218" y1="363.195" x2="147.19" y2="696.359" gradientUnits="userSpaceOnUse">
<stop stop-color="white"/>
<stop offset="0.32" stop-color="#F7F7F7"/>
<stop offset="0.8" stop-color="#E3E3E3"/>
<stop offset="1" stop-color="#D9D9D9"/>
</linearGradient>
<radialGradient id="paint2_radial_2038_59257" cx="0" cy="0" r="1" gradientTransform="matrix(671.36 254.808 -129.103 374.261 68.3823 442.614)" gradientUnits="userSpaceOnUse">
<stop offset="0.23" stop-color="white"/>
<stop offset="0.43" stop-color="#FBFBFB"/>
<stop offset="0.6" stop-color="#F1F1F1"/>
<stop offset="0.76" stop-color="#DFDFDF"/>
<stop offset="0.9" stop-color="#C7C7C7"/>
<stop offset="1" stop-color="#B3B3B3"/>
</radialGradient>
<radialGradient id="paint3_radial_2038_59257" cx="0" cy="0" r="1" gradientTransform="matrix(184.027 120.968 -115.406 193.654 77.9702 854.93)" gradientUnits="userSpaceOnUse">
<stop stop-color="#B3B3B3"/>
<stop offset="0.31" stop-color="#CFCFCF"/>
<stop offset="0.76" stop-color="#F1F1F1"/>
<stop offset="1" stop-color="white"/>
</radialGradient>
<radialGradient id="paint4_radial_2038_59257" cx="0" cy="0" r="1" gradientTransform="matrix(619.105 404.909 -312.158 526.456 -25.4071 976.022)" gradientUnits="userSpaceOnUse">
<stop stop-color="#B3B3B3"/>
<stop offset="0.12" stop-color="#C6C6C6"/>
<stop offset="0.32" stop-color="#DFDFDF"/>
<stop offset="0.53" stop-color="#F0F0F0"/>
<stop offset="0.75" stop-color="#FBFBFB"/>
<stop offset="1" stop-color="white"/>
</radialGradient>
<linearGradient id="paint5_linear_2038_59257" x1="241.153" y1="792.91" x2="206.316" y2="1034.22" gradientUnits="userSpaceOnUse">
<stop stop-color="white"/>
<stop offset="0.32" stop-color="#F7F7F7"/>
<stop offset="0.8" stop-color="#E3E3E3"/>
<stop offset="1" stop-color="#D9D9D9"/>
</linearGradient>
<linearGradient id="paint6_linear_2038_59257" x1="34.2529" y1="847.743" x2="370.54" y2="982.38" gradientUnits="userSpaceOnUse">
<stop stop-color="#F4F4F4"/>
<stop offset="0.41" stop-color="#ECECEC"/>
<stop offset="1" stop-color="#D9D9D9"/>
</linearGradient>
</defs>
</svg>
