<svg width="23" height="23" viewBox="0 0 23 23" fill="none" xmlns="http://www.w3.org/2000/svg">
<path d="M19.9456 12.5649C19.3657 12.5649 18.8912 13.0394 18.8912 13.6193V15.0427C18.8912 17.162 17.162 18.8912 15.0427 18.8912H7.95727C5.83796 18.8912 4.10877 17.162 4.10877 15.0427V7.95727C4.10877 5.83796 5.83796 4.10877 7.95727 4.10877H9.37014C9.95006 4.10877 10.4245 3.6343 10.4245 3.05438C10.4245 2.47447 9.95006 2 9.37014 2H7.95727C4.66759 2 2 4.67814 2 7.95727V15.0427C2 18.3324 4.67814 21 7.95727 21H15.0427C18.3324 21 21 18.3219 21 15.0427V13.6193C21 13.0394 20.5255 12.5649 19.9456 12.5649Z" fill="#1E1E1E"/>
<path d="M6.51343 9.71826C6.41568 9.81581 6.33813 9.93167 6.28522 10.0592C6.23231 10.1868 6.20508 10.3235 6.20508 10.4616C6.20508 10.5997 6.23231 10.7364 6.28522 10.864C6.33813 10.9915 6.41568 11.1074 6.51343 11.2049L9.95072 14.6422C10.3303 15.0218 10.8469 15.2327 11.3847 15.2327H11.5112C11.7989 15.2164 12.0797 15.1383 12.3344 15.0037C12.5892 14.869 12.8119 14.681 12.9873 14.4524L19.6827 5.83813C19.8539 5.61832 19.9312 5.33968 19.8976 5.06308C19.864 4.78649 19.7223 4.53443 19.5034 4.36199C19.2836 4.19077 19.005 4.11351 18.7284 4.1471C18.4518 4.18068 18.1997 4.32238 18.0273 4.54124L11.3847 13.0923L8.01065 9.71826C7.91311 9.62052 7.79724 9.54297 7.66969 9.49006C7.54214 9.43715 7.4054 9.40992 7.26731 9.40992C7.12922 9.40992 6.99249 9.43715 6.86493 9.49006C6.73738 9.54297 6.62152 9.62052 6.52397 9.71826H6.51343Z" fill="#1E1E1E"/>
</svg>
