<svg width="100" height="120" viewBox="0 0 100 120" fill="none" xmlns="http://www.w3.org/2000/svg">
<path d="M93.7008 4.61523V93.8869C93.7008 97.237 92.5429 100.415 90.4395 102.835C88.2702 105.333 85.3373 106.708 82.1808 106.708H61.3296C58.233 106.708 55.626 107.951 53.5789 110.403C52.0341 112.256 51.4039 114.142 51.3981 114.161L50.996 115.384L50.533 114.184C50.5203 114.151 49.7773 112.266 48.1784 110.413C46.0563 107.954 43.5035 106.708 40.5936 106.708H19.7424C13.1149 106.708 7.30078 100.716 7.30078 93.8869V4.61523H93.7008Z" fill="black"/>
<path d="M70.1673 29.8609C69.8342 30.5269 69.5163 31.3994 69.6361 32.8548C69.3216 32.5712 68.8252 32.1746 68.567 32.2173C68.5371 32.222 68.5107 32.2387 68.4933 32.2636C68.4472 32.3266 67.4841 33.6633 67.0201 34.9656C66.8884 34.0324 66.7146 31.9395 67.5302 30.6183C67.5706 30.553 67.5567 30.4901 67.5291 30.4532C67.491 30.401 67.4358 30.3239 66.8011 30.4913C66.8932 30.1375 67.1052 29.3908 67.3437 29.0192C67.5015 28.7746 67.7882 28.4007 68.0937 28.0054C68.8953 26.9631 69.4207 26.2556 69.4207 25.9244C69.4207 25.4768 69.3044 25.1706 69.0853 25.0376C68.8895 24.9189 68.635 24.9474 68.3286 25.1231C67.1755 25.7831 65.3069 30.1672 65.02 32.7385C64.8553 32.1817 64.6226 31.1738 64.5973 30.3868C64.5811 29.9071 64.6825 29.4299 64.7908 28.9255C64.8784 28.5147 64.9682 28.0897 65.0005 27.6398C65.02 27.3597 64.8852 27.3097 64.7653 27.2991C64.7541 27.2979 64.7377 27.2955 64.7377 27.2991C64.7274 27.2813 64.6962 27.1744 64.8288 26.6581C64.9821 26.0621 66.0684 24.5094 66.6882 23.6831C66.6882 23.6831 66.717 23.6071 66.7193 23.5704C66.7204 23.53 66.6537 23.4742 66.6168 23.4801C66.5891 23.4836 66.5316 23.5134 66.5316 23.5134C66.5107 23.5288 64.4073 25.0519 63.8854 25.7641C63.178 26.7304 62.7656 28.212 62.3394 30.401C62.1838 29.8621 61.8739 29.0975 61.3462 29.0121C61.3151 29.0074 61.2852 29.0144 61.2611 29.0335C61.1908 29.0846 59.6355 30.2811 58.5079 34.4396C58.4571 32.71 58.5863 28.434 60.9259 26.4918C61.0157 26.417 60.9962 26.347 60.9753 26.3126C60.9201 26.2129 60.8577 26.2378 60.5942 26.3446C60.4341 26.4099 59.9858 26.5915 59.8037 26.5987C59.9178 26.2734 60.2912 25.2845 60.7529 24.7254C61.0987 24.3076 62.0824 23.3234 63.7541 23.2237C63.8957 23.2154 63.936 23.137 63.9474 23.0907C63.9787 22.9625 63.9246 22.813 62.988 22.2051C63.4869 21.9915 64.8103 21.4596 65.8311 21.3682C66.0983 21.3433 66.4532 21.3445 66.8287 21.3457C67.9405 21.348 68.6833 21.3278 68.8976 21.0074C68.9438 20.9373 68.9851 20.821 68.9231 20.6571C68.5634 19.7133 67.1387 19.8712 66.1951 19.9758C66.0236 19.9947 65.8761 20.0114 65.7562 20.0185C64.588 20.0897 62.6066 20.7249 61.2219 21.6567C61.5237 21.0264 62.3026 19.7454 63.9003 18.9215C64.0144 18.8634 64.0156 18.7922 63.997 18.7423C63.9532 18.6284 63.9418 18.5986 62.6758 18.9821C62.8899 18.6557 63.2679 18.1167 63.5881 17.8555C64.6353 17.0043 67.0153 17.1088 67.0384 17.11C67.0902 17.1112 67.1375 17.0792 67.1535 17.0281C67.2284 16.7919 66.923 16.5604 66.5695 16.2909C66.4266 16.1829 66.1858 16 66.0972 15.8849C66.497 15.8208 67.741 15.6344 68.4622 15.6854C69.5705 15.7626 70.4206 15.9252 72.0599 17.4009L72.061 17.4021C72.061 17.4021 72.1267 17.4519 72.1532 17.4507C72.1763 17.4507 72.2395 17.4032 72.2524 17.383C72.2707 17.3522 72.2431 17.2608 72.2431 17.2608C72.2337 17.2429 71.3169 15.5537 70.348 14.2324C70.7489 14.4236 71.2812 14.6348 71.5116 14.5363C71.5807 14.5066 71.6268 14.4544 71.6475 14.3831C71.6531 14.363 71.6531 14.3417 71.6486 14.3215C71.6349 14.2657 71.3053 13.0239 68.4622 12.2404C69.2871 12.1289 70.779 11.99 71.4898 12.3212C72.1947 12.6488 73.3524 14.0698 73.364 14.084C73.3928 14.1196 73.4389 14.135 73.4827 14.1221C73.5264 14.1102 73.5586 14.0733 73.5669 14.0271C73.6542 13.4691 73.2661 12.5752 73.0402 12.117C73.9917 12.6333 74.9745 14.3867 74.9214 16.1722C74.9054 16.7218 75.1473 16.8002 75.2531 16.8097C75.4537 16.8263 75.6877 16.6256 75.713 16.412C75.8719 15.0622 75.8142 13.0584 75.7844 11.9829C75.7821 11.9211 75.7808 11.8617 75.7786 11.8072C76.0241 12.3033 76.4789 13.4074 76.8742 14.439C76.8902 14.4817 76.9306 14.5114 76.9754 14.5137C77.0194 14.5162 77.0619 14.4912 77.0827 14.4508C77.0953 14.4259 78.2922 12.117 79.5628 11.7466C79.4339 12.2013 79.2311 13.0548 79.4626 13.2922C79.4879 13.3183 79.5237 13.3302 79.5593 13.3255C79.5953 13.3207 79.6262 13.2981 79.6435 13.2661C79.6689 13.2198 80.2531 12.1882 81.8667 12.5253C81.3139 12.9966 80.0191 14.1778 80.1815 14.7679C80.1975 14.8295 80.2587 14.8664 80.3186 14.851C80.6654 14.7666 81.2079 14.6919 81.405 14.7725C80.9775 15.0908 79.3923 16.342 79.0433 17.6728C78.9386 18.0763 78.9845 18.5476 79.1608 18.8444C79.2437 18.9833 79.3474 19.0712 79.4615 19.096C80.0019 19.2148 80.5317 18.2271 80.9187 17.5054C81.0098 17.3344 81.0893 17.1871 81.1527 17.0851C81.2091 16.9949 81.2691 16.8904 81.3324 16.78C81.708 16.1282 82.2136 15.2486 83.0339 15.2355L82.9014 15.93C82.8922 15.9787 82.9128 16.0285 82.9545 16.0547C82.9958 16.0795 83.0489 16.076 83.0868 16.0451C83.0995 16.0345 84.2929 15.0611 86.0913 15.4172C85.7374 15.8243 85.308 16.4036 85.4854 16.647C85.5959 16.8002 85.9183 16.8097 86.5775 16.8156C87.1766 16.8215 87.9231 16.8299 88.4492 17.0151C89.5714 17.4103 90.826 18.0454 91.7177 19.7264C91.2603 19.5187 90.3455 19.1174 89.3538 18.7685C88.3619 18.4194 87.2928 18.1202 86.5279 18.1191C86.484 18.1191 86.4437 18.1452 86.4242 18.1856C86.4045 18.2259 86.4103 18.2746 86.4369 18.3114L87.3457 19.5092C86.6696 19.4249 84.9577 19.2254 84.3185 19.2623C83.4463 19.3121 82.2042 19.8463 81.535 20.9029C81.4856 20.9812 81.4821 21.0667 81.5248 21.1391C81.6642 21.3753 82.2803 21.3753 82.6238 21.3386C83.1731 21.2792 83.8726 21.1213 84.5486 20.9682C85.2607 20.8079 85.9322 20.656 86.3296 20.6417C87.1142 20.6144 88.9678 20.637 89.9448 21.3778L88.454 21.8335C88.4069 21.8479 88.3733 21.8917 88.3712 21.9428C88.3689 21.9926 88.3988 22.039 88.4438 22.0579C88.462 22.0651 90.1947 22.7679 90.7374 23.0623C91.251 23.34 91.9343 23.8363 92.0921 24.9723L91.3053 24.5438C91.258 24.5177 91.1991 24.5284 91.1647 24.5699C91.129 24.6114 91.1265 24.6732 91.1578 24.7182C91.1668 24.7313 92.0875 26.049 92.6727 27.4059C92.7096 27.4926 92.7451 27.5769 92.7775 27.6588V28.2416C92.2463 27.5461 91.4804 26.6568 90.6795 26.1214C90.644 26.0977 90.5969 26.0966 90.5588 26.1191C90.5219 26.1416 90.4999 26.1844 90.5022 26.2294L90.5899 27.5472C90.0887 26.2853 89.2546 24.8655 88.2951 24.1378C88.2363 24.0915 88.1673 24.0844 88.1073 24.1152C87.9402 24.2031 87.8837 24.6957 87.8711 25.186C87.2961 24.5438 85.5878 22.8094 83.8402 22.7335C83.5913 22.7227 82.8323 22.8806 82.6294 23.2973C82.5639 23.4303 82.5305 23.6427 82.7367 23.9075C82.8404 24.038 83.1053 24.1402 83.6479 24.342C84.7204 24.7396 86.4922 25.3973 87.4114 26.8017L86.771 26.9833C86.7273 26.9952 86.6951 27.032 86.6881 27.0771C86.68 27.1222 86.6984 27.1674 86.7341 27.1946C86.7675 27.2183 89.8919 29.5119 90.7799 31.2581L89.9792 30.8344C89.9298 30.8082 89.8697 30.8213 89.8363 30.8664C89.8019 30.9103 89.8029 30.9744 89.8388 31.0172C89.8549 31.0362 91.3443 32.8643 90.7396 34.6783C90.416 34.1262 89.515 32.6471 88.8906 32.1104C88.8551 32.0796 88.8089 32.0678 88.7628 32.0773C88.6406 32.1033 88.5496 32.266 88.3561 32.6578C88.3135 32.7444 88.2559 32.8595 88.2098 32.9415C87.7869 31.9549 86.3645 30.1162 86.301 30.0354C86.2709 29.9962 86.2214 29.9808 86.1755 29.9962C86.1293 30.0117 86.0981 30.0544 86.0959 30.1043C86.0809 30.464 86.0359 30.883 85.9865 31.0576C85.8229 30.883 85.6397 30.6729 85.4485 30.4532C84.6293 29.5166 83.7019 28.4554 82.9545 28.428C82.7483 28.4198 82.5662 28.4933 82.4164 28.6429C82.3874 28.6714 82.3726 28.7094 82.3726 28.7509C82.3714 28.923 82.6709 29.2401 83.5971 30.1778C84.5245 31.1169 85.7733 32.3811 86.3873 33.3606L85.642 33.3142C85.5935 33.3107 85.5522 33.338 85.5314 33.3807C85.5105 33.4235 85.5175 33.4757 85.5486 33.5113C85.5601 33.5255 86.6961 34.8765 86.8689 36.1906C86.3078 35.8428 85.9552 35.7028 85.8216 35.7775C85.7689 35.806 85.7374 35.8594 85.7364 35.9235C85.6845 38.0912 85.8322 42.4337 85.9208 44.7237C85.225 41.0198 84.7181 37.0833 84.7123 37.0383C84.7054 36.9836 84.6627 36.9409 84.6098 36.935C84.5579 36.9302 84.5061 36.9634 84.4889 37.0157C84.4866 37.0228 84.2677 37.671 83.8321 37.7018C83.7249 37.0537 83.0903 33.5469 81.7528 32.6055C81.451 32.3919 81.1295 32.323 80.8013 32.3966C80.7609 32.4061 80.7287 32.4358 80.7159 32.4762C80.7034 32.5153 80.7124 32.5593 80.7391 32.5913C80.7518 32.6067 81.9567 34.0538 81.7852 36.5326C81.3484 35.7039 80.2782 33.7879 79.6364 33.655C79.5248 33.6324 79.4223 33.6573 79.3406 33.7274C79.23 33.8223 79.2738 33.9767 79.632 35.0024C80.0928 36.32 80.8634 38.5269 80.5986 39.6368C80.5883 39.6784 80.6009 39.7223 80.632 39.752C80.6619 39.7817 80.7057 39.7912 80.746 39.7781L81.6423 39.4802C81.5282 40.3942 81.1135 41.947 80.9822 42.4254L80.9739 42.4539C80.9739 42.4539 80.9762 42.5227 80.9891 42.5417C80.9994 42.5583 81.0353 42.5797 81.0536 42.5833C81.0791 42.5893 81.1562 42.5797 81.1562 42.5797C81.5489 42.2711 82.0005 41.8983 82.3025 41.6466C81.7841 43.1531 81.3645 45.6781 81.3448 45.7944C81.3394 45.8349 81.3531 45.8764 81.3832 45.9037C81.4118 45.931 81.4545 45.9405 81.4914 45.9286C82.0005 45.7743 82.4131 45.5452 82.649 45.3956C82.3658 47.0694 81.0546 48.646 81.0409 48.6625C81.0109 48.6981 81.004 48.7503 81.026 48.7932C81.0467 48.8359 81.0893 48.862 81.1376 48.8584C81.6468 48.8145 82.3714 48.4631 82.7595 48.2565C82.5822 48.7005 82.3185 49.1207 82.0812 49.4994C81.8449 49.8758 81.6423 50.1999 81.5512 50.4907C81.4869 50.6949 81.5168 51.2481 81.5363 51.5069H75.5516C75.7269 51.0178 76.1851 49.5232 75.9536 47.8422C76.153 47.9894 76.5537 48.3966 76.8811 48.767C76.9134 48.8038 76.9628 48.8157 77.0066 48.799C77.0505 48.7813 77.0804 48.7385 77.0814 48.6899C77.1034 47.7271 77.0619 46.2777 76.4905 44.5884C76.7543 44.8567 77.1772 45.3327 77.5561 45.7825C77.5884 45.8206 77.6425 45.8336 77.6874 45.8134C77.7336 45.7933 77.7624 45.7446 77.7577 45.6936C77.7427 45.525 77.3994 41.7001 76.4963 39.4446C76.7508 39.6606 77.1563 40.0417 77.5204 40.4038C77.5561 40.4393 77.6114 40.4476 77.6552 40.4227C77.6991 40.3978 77.7232 40.3456 77.7129 40.2945C77.5515 39.4695 77.0711 38.5435 76.6058 37.6461C76.3625 37.1759 76.1299 36.7273 75.948 36.3046L77.1068 36.8353C77.1472 36.8542 77.1945 36.8471 77.2277 36.8187C77.2611 36.7889 77.2762 36.7439 77.2657 36.6999C77.2588 36.669 76.5537 33.6526 76.1542 32.3444C76.1403 32.2969 76.0978 32.2636 76.0493 32.2612C75.9997 32.2589 75.9559 32.2897 75.9376 32.336L75.1911 34.2865L74.4503 33.624C74.417 33.5944 74.3697 33.5873 74.3294 33.6051C74.289 33.6229 74.2614 33.6621 74.2591 33.7072L74.038 37.7505C73.7418 37.0833 73.2085 35.5935 73.2798 33.6158C73.2809 33.5659 73.2533 33.5208 73.2095 33.5018C73.1657 33.4828 73.1153 33.4934 73.0819 33.5279L72.258 34.4005C72.3399 33.3415 72.7245 31.8778 72.728 31.8612C72.7432 31.8066 72.7178 31.7484 72.6683 31.7235C72.6185 31.6986 72.5588 31.714 72.5254 31.7591L71.5704 33.0757C71.5139 32.6471 71.6083 32.2731 71.6867 31.9633C71.7695 31.6356 71.8411 31.3531 71.7097 31.118C71.6844 31.073 71.6428 31.042 71.5946 31.0301C71.4689 31.0018 71.325 31.1086 71.1578 31.2309C71.1119 31.2641 71.0507 31.3091 71.0036 31.3388C70.9586 30.8557 71.2742 29.9654 71.5299 29.2412C71.833 28.3865 71.9989 27.8902 71.8929 27.6576C71.8651 27.597 71.8203 27.5543 71.7627 27.5342C71.1764 27.3204 70.7535 28.4019 70.4137 29.2721C70.3193 29.513 70.2374 29.7221 70.1673 29.8609Z" fill="#FDDA17"/>
<path d="M45.4077 82.2046L45.3789 82.2095L45.4054 82.2152L38.7124 83.3776C38.672 83.3846 38.6396 83.412 38.6247 83.4511V83.4522C38.6097 83.4915 38.6166 83.5366 38.6421 83.5674C38.6431 83.5697 38.6466 83.5734 38.6489 83.5782C38.6512 83.5793 38.6524 83.5818 38.6547 83.5853C38.657 83.5865 38.6593 83.5899 38.6628 83.5935C38.7423 83.6958 39.0269 84.0589 39.347 84.4281C39.3689 84.4532 39.3909 84.4768 39.4115 84.5006C39.5199 84.6239 39.6315 84.745 39.7388 84.8566C39.7813 84.9006 39.824 84.9434 39.8655 84.9838C39.9068 85.0229 39.9472 85.0609 39.9864 85.0964C40.0255 85.1309 40.0636 85.163 40.0993 85.1925C40.1269 85.214 40.1524 85.2329 40.1775 85.2508C40.203 85.2673 40.226 85.2828 40.2491 85.2947C40.3146 85.3315 40.392 85.3553 40.4795 85.3696C40.4967 85.3732 40.514 85.3753 40.5324 85.3779C40.6845 85.3981 40.8596 85.3968 41.0417 85.3944C41.2848 85.3921 41.537 85.3885 41.6696 85.4491C41.9413 85.5713 42.2742 85.9773 42.568 86.3357C42.8007 86.6195 43.0196 86.8867 43.2166 87.0374C43.4782 87.2381 44.1555 87.5941 44.584 87.8127C44.0553 87.8565 43.3052 87.8932 43.0312 87.8078C42.803 87.7378 42.552 87.4755 42.3112 87.2202C42 86.895 41.6797 86.5566 41.3261 86.527C41.1684 86.5151 40.9195 86.6042 40.6569 86.7003C40.4575 86.7728 40.2352 86.8512 40.1281 86.8533C39.6776 86.845 38.5442 86.236 37.937 85.8717C37.9335 85.8693 37.9302 85.8681 37.9266 85.8657L37.8472 85.817L37.7779 85.8931L37.7331 85.9418L37.7885 86.0581L42.2317 92.4769L36.05 87.9455C36.0131 87.9183 35.966 87.916 35.9268 87.9383C35.8888 87.961 35.8658 88.0038 35.8681 88.0501C35.8737 88.1332 36.0085 90.1144 36.6099 90.9883C36.8368 91.3169 36.7551 91.8987 36.6905 92.3676C36.6513 92.6442 36.6192 92.8829 36.6491 93.0479C36.7275 93.4775 37.0546 94.2527 37.2527 94.6979C36.8001 94.4237 36.1502 93.9879 35.9981 93.7103C35.9118 93.5523 35.9233 93.2615 35.9326 92.9803C35.944 92.6727 35.9544 92.3819 35.8577 92.1742C35.7781 92.002 35.5617 91.8583 35.3518 91.7182C35.2194 91.6315 35.0836 91.5403 35.0213 91.4653C34.5961 90.9502 33.7046 89.077 33.6954 89.0579C33.6734 89.0116 33.6251 88.9854 33.5743 88.9926C33.5247 89.0009 33.4857 89.0401 33.4776 89.0911L32.3106 96.7077L31.1299 89.1244C31.1229 89.0815 31.094 89.046 31.0538 89.0318C31.0135 89.0175 30.9697 89.0258 30.9386 89.0556C30.881 89.1089 29.5262 90.3828 29.2879 90.8327C29.1933 91.0106 29.1334 91.2197 29.0701 91.4417C28.9203 91.9676 28.7498 92.5634 28.0574 93.0466C27.7844 93.2377 27.6876 93.5226 27.5932 93.7993C27.5332 93.9762 27.4722 94.1579 27.3639 94.3263C27.2175 94.5531 27.092 94.8048 26.9906 95.0339C27.0379 94.4035 27.1186 93.5606 27.2235 93.2426C27.2787 93.0728 27.403 92.84 27.5355 92.5944C27.7338 92.2274 27.9377 91.8464 27.9767 91.5591C27.9997 91.3953 27.9446 91.1794 27.8869 90.9513C27.8373 90.753 27.7798 90.5287 27.8029 90.4077C27.9089 89.8521 28.9641 88.4074 28.9745 88.393C28.994 88.367 29.0008 88.3337 28.9952 88.3018C28.9906 88.2684 28.9722 88.2399 28.9444 88.2223L28.5206 87.9408C28.4791 87.9134 28.426 87.916 28.388 87.9468L22.6201 92.5422L26.8501 86.3264C26.8732 86.2932 26.8779 86.2481 26.8605 86.2101C26.8443 86.172 26.8087 86.1459 26.7684 86.1412C26.7246 86.1363 25.7028 86.0224 25.1844 86.1601C24.9158 86.2313 24.5564 86.3808 24.1753 86.5387C23.8401 86.6765 23.4932 86.8202 23.1914 86.9175C23.1118 86.9437 22.8251 86.9401 22.5716 86.9377C22.1949 86.933 21.7674 86.9271 21.5407 86.9911C20.9462 87.1573 20.3011 87.422 19.9036 87.5954C20.1685 87.244 20.6317 86.7109 21.187 86.4416C21.4529 86.3121 21.8195 86.2528 22.1418 86.2005C22.3999 86.1578 22.6235 86.1221 22.7583 86.0545C22.9346 85.9667 23.0993 85.7992 23.2893 85.6047C23.5231 85.3647 23.7893 85.0941 24.1419 84.9113C24.8733 84.5338 25.8812 84.433 25.8918 84.433C25.9252 84.4294 25.9551 84.4115 25.9746 84.383C25.9943 84.3556 26.0011 84.3201 25.993 84.2857L25.8789 83.8025C25.8686 83.7562 25.8306 83.7217 25.7856 83.7134L18.1836 82.4765L25.7592 81.3641C25.8076 81.3571 25.8455 81.3203 25.8561 81.2703L25.9297 80.9083C25.9401 80.8584 25.9181 80.8074 25.8754 80.7812C25.8617 80.7729 24.5001 79.9443 23.0981 79.3247C22.8989 79.2369 22.6534 78.9531 22.415 78.6801C22.0844 78.2978 21.7411 77.9038 21.3965 77.8622C20.2527 77.7244 19.8333 77.271 19.6835 77.0074C20.0511 77.0916 20.8126 77.2247 21.5728 77.1024C21.7825 77.0703 22.1039 77.3374 22.3897 77.5737C22.6534 77.7933 22.9033 78.001 23.1292 78.0509C23.3169 78.0924 23.537 78.0142 23.7501 77.9381C23.9125 77.88 24.0796 77.8218 24.196 77.8313C25.1763 77.9155 26.3778 79.2239 26.3894 79.2369C26.4135 79.2641 26.4494 79.2771 26.485 79.2749C26.5207 79.27 26.5529 79.2499 26.5713 79.2178L26.8514 78.749C26.8767 78.7085 26.8744 78.6563 26.8466 78.6172L22.5959 72.6365L28.4353 76.966C28.4756 76.9966 28.531 76.9955 28.5712 76.9647C28.6115 76.9326 28.6276 76.878 28.6104 76.8293C28.6071 76.821 28.3017 75.9354 28.4065 75.5009C28.5413 74.9478 28.2821 74.4538 28.0321 73.9755C27.8547 73.6371 27.6716 73.287 27.6313 72.9214C27.6104 72.7231 27.6301 72.4761 27.6496 72.2365C27.6645 72.0511 27.6796 71.8755 27.6761 71.7152C27.668 71.2999 27.387 70.2243 27.1646 69.4384C27.6266 69.868 28.3283 70.5672 28.4779 70.9056C28.5413 71.0516 28.5459 71.3258 28.5505 71.5905C28.555 71.9027 28.5596 72.1984 28.6507 72.3919C28.767 72.6435 29.0701 72.9131 29.3638 73.1731C29.5885 73.3725 29.82 73.5778 29.9237 73.7417C30.039 73.9245 30.1218 74.4064 30.1944 74.8315C30.3062 75.4807 30.3775 75.8536 30.5445 75.9627C30.5781 75.9841 30.6138 75.996 30.6507 75.996C30.6667 75.996 30.6841 75.9935 30.7013 75.989C30.7439 75.9769 30.7762 75.9403 30.7841 75.8963L32.1355 68.5337L33.2277 75.8C33.2357 75.85 33.2714 75.8891 33.3198 75.8987C33.3567 75.9059 33.3946 75.895 33.4212 75.8678C33.4291 75.8608 33.4351 75.8523 33.4407 75.844L33.6056 75.5626L34.1412 74.6426V80.8288H38.6456L45.4077 82.2046Z" fill="#FDDA17"/>
<path d="M66.6733 30.7723C66.8726 30.7154 67.1053 30.6596 67.2526 30.6358C66.2493 32.4652 66.8483 35.3653 66.8749 35.4911C66.8863 35.5457 66.9324 35.5838 66.9854 35.585C67.0338 35.5873 67.0856 35.5493 67.0995 35.4959C67.4163 34.2411 68.4462 32.737 68.6455 32.4533C68.8391 32.4865 69.3263 32.8688 69.7032 33.2368C69.7387 33.2724 69.7906 33.2795 69.8343 33.257C69.8781 33.2344 69.9022 33.1869 69.8966 33.1371C69.7109 31.5606 70.0163 30.6833 70.3735 29.9699C70.4485 29.8202 70.5311 29.6078 70.6282 29.3597C70.8827 28.7091 71.3088 27.6193 71.6832 27.7547C71.7707 27.8699 71.4965 28.6462 71.3146 29.1602C71.0186 29.9972 70.6834 30.9456 70.7915 31.4704C70.8043 31.5286 70.84 31.5736 70.8897 31.5938C71.0013 31.6377 71.1233 31.5476 71.2928 31.4241C71.3573 31.3766 71.4679 31.2959 71.5266 31.2709C71.5865 31.4205 71.5324 31.6365 71.4644 31.9036C71.3643 32.3002 71.2397 32.794 71.3998 33.3899C71.4114 33.4327 71.4461 33.4659 71.4888 33.4742C71.5324 33.4825 71.5762 33.4648 71.6025 33.4292L72.3677 32.3749C72.2248 32.9982 72.0242 33.9954 72.0138 34.7077C72.0128 34.7564 72.0416 34.8003 72.0854 34.818C72.129 34.837 72.1786 34.8264 72.212 34.792L73.0439 33.9099C73.0253 36.5144 73.9896 38.1859 74.0309 38.2584C74.0575 38.3023 74.1095 38.3248 74.1579 38.3117C74.2072 38.2987 74.2419 38.2548 74.2452 38.2037L74.4769 33.9621L75.1635 34.5759C75.1923 34.6008 75.2303 34.6103 75.2672 34.6008C75.3029 34.5913 75.3328 34.5652 75.3467 34.5296L76.032 32.7405C76.365 33.9064 76.8304 35.8509 76.9883 36.5204L75.7763 35.966C75.7337 35.9458 75.6831 35.9554 75.6497 35.9885C75.6151 36.0218 75.6047 36.0729 75.6219 36.118C75.82 36.632 76.1036 37.1792 76.4042 37.7585C76.7854 38.4945 77.1785 39.2531 77.388 39.9441C76.3593 38.9421 76.2787 39.0015 76.2003 39.0585C76.1658 39.0845 76.1162 39.1451 76.1716 39.2698C76.9767 41.0588 77.3754 44.2616 77.4915 45.3442C76.3846 44.0515 76.2969 44.1061 76.2119 44.1583C76.1749 44.1809 76.1208 44.2379 76.1693 44.3673C76.7671 45.9806 76.8603 47.3932 76.857 48.3881C76.0079 47.4585 75.8605 47.5321 75.7949 47.5642C75.7626 47.5808 75.69 47.6318 75.7118 47.7719C76.0194 49.758 75.2855 51.5612 75.2776 51.5791C75.2626 51.6158 75.2662 51.6574 75.2878 51.6906C75.3087 51.7238 75.3444 51.744 75.3836 51.744H81.662C81.6941 51.744 81.7252 51.7298 81.7472 51.7049C81.769 51.6812 81.7794 51.6479 81.7771 51.6147C81.7484 51.2918 81.7217 50.722 81.7713 50.564C81.8532 50.3029 82.049 49.9906 82.276 49.6286C82.5721 49.1562 82.907 48.622 83.0824 48.0402C83.0972 47.9939 83.0824 47.9429 83.0455 47.9121C83.0086 47.8812 82.9568 47.8777 82.9153 47.9013C82.9061 47.9073 82.0662 48.3975 81.412 48.5673C81.8279 48.0129 82.7643 46.6204 82.914 45.165C82.9198 45.1175 82.8968 45.0724 82.8578 45.0487C82.8174 45.0261 82.7678 45.0286 82.7321 45.057C82.7263 45.0606 82.2656 45.4083 81.6066 45.641C81.7298 44.9371 82.1803 42.4857 82.6757 41.3175C82.6964 41.2677 82.6815 41.2083 82.6389 41.1752C82.5962 41.1418 82.5373 41.1431 82.496 41.1787C82.489 41.1845 81.8773 41.7033 81.2911 42.1722C81.4823 41.4541 81.8279 40.0794 81.8924 39.3208C81.8959 39.2804 81.8785 39.2425 81.8486 39.2175C81.8186 39.1926 81.7783 39.1855 81.7414 39.1974L80.8602 39.4905C81.0202 38.2702 80.2933 36.1915 79.8498 34.9213C79.6978 34.4856 79.5399 34.0346 79.5216 33.8897C79.5389 33.8838 79.5605 33.8814 79.5918 33.8874C80.0963 33.9918 81.1654 35.7998 81.7609 36.9893C81.7839 37.0356 81.8346 37.0605 81.8831 37.0511C81.9339 37.0428 81.9719 37.0012 81.9775 36.9501C82.2668 34.6091 81.3865 33.0944 81.0421 32.6052C81.239 32.6006 81.4338 32.667 81.625 32.8011C82.9866 33.7592 83.6156 37.7954 83.6214 37.8369C83.6295 37.8891 83.6711 37.9295 83.7228 37.9355C84.1145 37.9805 84.3795 37.7004 84.5362 37.4511C84.7044 38.7083 85.2769 42.8276 85.9842 46.2346C85.9957 46.2904 86.0429 46.3283 86.0971 46.3283C86.1018 46.3283 86.1062 46.3283 86.112 46.3273C86.1709 46.3201 86.2147 46.2655 86.2124 46.2038C86.2089 46.1326 85.9013 39.0395 85.9668 35.9969C86.1352 36.036 86.58 36.2794 86.9438 36.5168C86.9795 36.5394 87.0256 36.5406 87.0625 36.5192C87.0994 36.4967 87.1212 36.4551 87.12 36.4111C87.0739 35.2478 86.2549 34.0453 85.892 33.5668L86.5947 33.6107C86.6362 33.6143 86.6777 33.5918 86.6997 33.5549C86.7215 33.517 86.7227 33.4706 86.7018 33.4327C86.1259 32.4035 84.7585 31.0192 83.7597 30.0078C83.248 29.4902 82.7195 28.956 82.618 28.7756C82.7137 28.6972 82.8232 28.6604 82.9474 28.6652C83.5973 28.6889 84.5293 29.755 85.2781 30.6122C85.497 30.8626 85.7032 31.1 85.8862 31.2899C85.9357 31.3421 86.0015 31.36 86.0616 31.3362C86.1155 31.3149 86.2493 31.2615 86.3101 30.4292C86.7434 31.005 87.7941 32.4438 88.0486 33.1608C88.082 33.2558 88.1557 33.2676 88.1776 33.2689C88.301 33.276 88.3745 33.1454 88.5624 32.7643C88.6282 32.6326 88.7317 32.4236 88.795 32.3381C89.5255 33.0112 90.6521 34.9854 90.6635 35.0068C90.6855 35.0448 90.7258 35.0673 90.7695 35.065C90.8122 35.0626 90.8502 35.0353 90.8674 34.995C91.5161 33.4909 90.765 31.9832 90.3099 31.2757L90.969 31.6235C91.0116 31.6461 91.0634 31.639 91.0991 31.6069C91.1336 31.5736 91.1464 31.5226 91.1302 31.4763C90.5461 29.8666 87.8285 27.725 87.0649 27.1457L87.6246 26.9878C87.6605 26.9783 87.6879 26.9522 87.702 26.9178C87.7157 26.8833 87.7122 26.8441 87.6927 26.8121C86.7584 25.2427 84.861 24.5388 83.7274 24.1185C83.3451 23.976 82.9844 23.8419 82.9176 23.7576C82.7608 23.5582 82.8174 23.4418 82.8358 23.4039C82.9752 23.119 83.6064 22.9622 83.8323 22.9706C85.8299 23.0573 87.8758 25.5454 87.8953 25.5704C87.9266 25.6095 87.9783 25.6226 88.0233 25.606C88.0694 25.5881 88.0992 25.5442 88.0992 25.4944C88.097 25.0445 88.1374 24.5209 88.2007 24.3595C89.1557 25.1097 90.159 26.7694 90.6521 28.4218C90.6695 28.48 90.7258 28.5157 90.7834 28.5038C90.8409 28.493 90.8813 28.4397 90.8778 28.3791L90.75 26.4583C91.4999 27.0175 92.2083 27.8674 92.6878 28.5073C92.72 28.55 92.7499 28.5917 92.7787 28.6308V58.7481H66.8587V37.3798H51.3066V5.56494H92.7787V27.0733C92.3939 26.2339 91.9067 25.4362 91.6117 24.978L92.1774 25.2866C92.2141 25.3068 92.2591 25.3056 92.2948 25.2819C92.3294 25.2581 92.3491 25.2166 92.3468 25.1727C92.2417 23.7635 91.4389 23.1724 90.8456 22.8506C90.4285 22.6251 89.37 22.1823 88.8389 21.9639L90.219 21.5413C90.2592 21.5294 90.2891 21.4962 90.2984 21.4546C90.3088 21.413 90.2951 21.3691 90.265 21.3406C89.3181 20.4385 87.3886 20.3672 86.324 20.404C85.9048 20.4183 85.2228 20.5726 84.5005 20.7364C83.8313 20.8871 83.1375 21.0439 82.6008 21.1032C82.1341 21.153 81.807 21.0831 81.7333 21.0261C82.36 20.0431 83.5189 19.5457 84.3322 19.4994C85.0995 19.4543 87.5694 19.776 87.5937 19.7796C87.6396 19.7856 87.6858 19.7629 87.7087 19.7203C87.7319 19.6787 87.7283 19.6265 87.6997 19.5884L86.7735 18.3669C88.6037 18.5081 91.8894 20.0656 91.9239 20.0823C91.9677 20.1025 92.0206 20.0929 92.0541 20.0573C92.0888 20.0217 92.0967 19.9671 92.0761 19.922C91.1417 17.9371 89.7569 17.2249 88.5243 16.7892C87.9634 16.5922 87.1961 16.5851 86.581 16.578C86.2066 16.5743 85.7411 16.5697 85.6731 16.5079C85.6364 16.394 85.9751 15.8882 86.3979 15.4264C86.4254 15.3955 86.436 15.3516 86.4242 15.3101C86.4128 15.2697 86.3804 15.2389 86.3402 15.2294C84.7942 14.8471 83.6558 15.3932 83.1837 15.6899L83.2874 15.1451C83.2943 15.113 83.2862 15.0786 83.2667 15.0513C83.247 15.024 83.2171 15.0074 83.1847 15.0038C82.1411 14.9077 81.5375 15.9606 81.1353 16.6586C81.0733 16.7666 81.0144 16.8688 80.9604 16.9566C80.8924 17.0646 80.8117 17.2155 80.7184 17.3899C80.4257 17.9336 79.8845 18.9451 79.5111 18.8631C79.4603 18.8525 79.4063 18.8014 79.359 18.7207C79.2416 18.5236 79.1632 18.1307 79.268 17.7341C79.6401 16.3108 81.6205 14.9064 81.64 14.8934C81.6781 14.8661 81.6976 14.8198 81.6883 14.7723C81.6746 14.6987 81.6321 14.6358 81.5653 14.5906C81.3141 14.4233 80.6976 14.5266 80.4016 14.5895C80.48 14.117 81.5052 13.1222 82.1942 12.5571C82.2287 12.5298 82.2447 12.4847 82.2357 12.4408C82.2266 12.3957 82.1942 12.3613 82.1527 12.3494C80.6632 11.9434 79.8787 12.6058 79.5837 12.956C79.5744 12.6723 79.6897 12.1119 79.8417 11.6264C79.8544 11.5872 79.8465 11.5445 79.821 11.5136C79.7957 11.4828 79.7565 11.4661 79.7173 11.4721C78.4961 11.6395 77.3639 13.4724 76.9997 14.1194C75.902 11.2739 75.759 11.3059 75.6543 11.3272C75.6105 11.3368 75.5391 11.3724 75.5425 11.5173C75.5449 11.6347 75.5493 11.7962 75.5551 11.9897C75.585 13.0593 75.6427 15.0679 75.4861 16.3998C75.4757 16.4783 75.3662 16.6052 75.2799 16.6052H75.2718C75.1923 16.6052 75.1463 16.4283 75.1531 16.1957C75.2095 14.3141 74.0541 12.1227 72.8216 11.7796C72.7766 11.7677 72.7293 11.7796 72.7004 11.8188C72.6718 11.8567 72.6683 11.9066 72.6913 11.9481C72.6982 11.96 73.2651 12.9821 73.3422 13.6944C72.9701 13.2623 72.1603 12.3719 71.5855 12.1048C70.5141 11.6062 67.9544 12.0763 67.8461 12.0965C67.7918 12.106 67.7526 12.1535 67.7515 12.2105C67.7504 12.2674 67.7884 12.3161 67.8426 12.3292C70.6809 12.9726 71.2996 14.073 71.4069 14.3247C71.2513 14.3699 70.6085 14.1265 69.9957 13.7847C69.9461 13.7572 69.8862 13.7704 69.8517 13.813C69.8161 13.857 69.8161 13.9211 69.8517 13.965C70.568 14.8613 71.3077 16.0864 71.7177 16.7963C70.3309 15.6661 69.484 15.5178 68.4796 15.4477C67.588 15.3861 65.9993 15.6603 65.9313 15.6709C65.884 15.6793 65.8473 15.7173 65.8381 15.7647C65.7931 15.995 66.0904 16.2205 66.4337 16.4818C66.5685 16.5838 66.7909 16.7536 66.8886 16.8676C66.315 16.8569 64.4085 16.8866 63.4464 17.6701C62.9407 18.0808 62.3371 19.0828 62.3118 19.1243C62.2863 19.1671 62.2887 19.2204 62.3186 19.2596C62.3475 19.2988 62.397 19.3155 62.4431 19.3011C62.6827 19.2276 62.9351 19.1527 63.1585 19.0875C61.465 20.2307 60.8915 21.8262 60.85 21.9461L60.8291 22.0101C60.8291 22.0101 60.8245 22.0576 60.8361 22.0767C60.857 22.1099 60.9454 22.1123 60.9836 22.1111C60.9997 22.1111 61.0215 22.1004 61.0423 22.0838C62.39 21.051 64.5467 20.3304 65.7782 20.2557C65.9037 20.2474 66.0501 20.2307 66.224 20.2117C67.0985 20.1155 68.4174 19.9684 68.7121 20.7435C68.7389 20.8147 68.725 20.8503 68.71 20.873C68.5487 21.1139 67.5555 21.1104 66.8311 21.108C66.4498 21.1068 66.0893 21.1056 65.8116 21.1305C64.4973 21.2504 62.7669 22.0422 62.693 22.0767C62.6538 22.0945 62.6287 22.1325 62.6252 22.1764C62.6229 22.2203 62.6435 22.2631 62.6792 22.2856C63.3185 22.6916 63.5676 22.8935 63.6655 22.9919C61.9523 23.1213 60.9386 24.1363 60.5793 24.5709C59.9952 25.2771 59.5677 26.5735 59.5494 26.6281C59.5378 26.6637 59.5436 26.704 59.5641 26.735C59.6782 26.9 59.979 26.8335 60.3775 26.6851C57.7821 29.4 58.2959 34.9854 58.3201 35.2324C58.3259 35.2905 58.3718 35.3618 58.4272 35.3618H58.4353C58.4882 35.3618 58.5344 35.3024 58.5471 35.249C59.5654 30.9825 61.0987 29.495 61.358 29.2683C61.8648 29.4155 62.1643 30.5433 62.2379 30.9813C62.2485 31.0383 62.2956 31.0762 62.351 31.0762C62.4039 31.0762 62.4547 31.0347 62.4651 30.9789C62.9235 28.5286 63.3336 26.9142 64.0708 25.9075C64.382 25.4813 65.36 24.6943 66.0466 24.1684C65.5189 24.9092 64.7483 26.0488 64.6066 26.596C64.4637 27.1528 64.4811 27.3344 64.55 27.4365C64.6078 27.522 64.6941 27.5303 64.746 27.535C64.7529 27.5362 64.7622 27.5362 64.769 27.5374C64.7724 27.5505 64.7748 27.5755 64.7713 27.6229C64.7414 28.055 64.6525 28.4717 64.5674 28.8742C64.4556 29.3941 64.351 29.8856 64.3681 30.3936C64.3899 31.0881 64.5593 31.874 64.6585 32.2812C64.7887 32.8142 64.8784 33.0801 64.9453 33.2143C65.0109 33.3472 65.0547 33.3472 65.0905 33.3472C65.1352 33.3472 65.2125 33.3163 65.2171 33.2C65.3013 30.8435 67.2895 25.9894 68.4416 25.3294C68.6005 25.2392 68.8194 25.1513 68.9691 25.2415C69.111 25.327 69.1915 25.5762 69.1915 25.9241C69.1915 26.1972 68.453 27.1576 67.9141 27.858C67.6063 28.2568 67.3161 28.6344 67.1535 28.8884C66.8125 29.4167 66.542 30.5812 66.5305 30.6311C66.5212 30.6715 66.5328 30.7142 66.5627 30.7439C66.5913 30.7735 66.6341 30.7842 66.6733 30.7723Z" fill="#EE1D24"/>
<path d="M50.6142 80.8286V112.266C50.2099 111.557 49.6397 110.685 48.8851 109.806C46.6099 107.158 43.7426 105.758 40.5919 105.758H19.7407C13.604 105.758 8.2207 100.211 8.2207 93.8869V59.8164H34.1407V74.1853L33.408 75.4403L32.2618 67.8154C32.2514 67.7584 32.2041 67.7155 32.1489 67.7144C32.09 67.712 32.044 67.7548 32.0336 67.8105L30.5982 75.6289C30.5314 75.4295 30.4671 75.0579 30.4208 74.7896C30.3368 74.2982 30.2573 73.8352 30.1167 73.6131C29.9958 73.4196 29.7608 73.2119 29.5131 72.9923C29.2378 72.7489 28.9543 72.496 28.8576 72.2896C28.7896 72.1423 28.785 71.8598 28.7804 71.5855C28.7746 71.2839 28.7701 70.998 28.6871 70.808C28.4556 70.2833 27.2195 69.1673 27.0432 69.0107C27.004 68.9739 26.9672 68.9584 26.9372 68.9584C26.8542 68.9584 26.8104 69.0676 26.8426 69.152C27.0305 69.8025 27.1803 70.3605 27.2828 70.7984C27.3853 71.2365 27.4419 71.5535 27.4452 71.7197C27.4475 71.867 27.4338 72.0368 27.4199 72.2171C27.3991 72.4677 27.3784 72.7264 27.4025 72.9473C27.4464 73.3592 27.641 73.7295 27.8288 74.0879C28.0685 74.5462 28.2955 74.9784 28.1824 75.4437C28.1054 75.7594 28.2032 76.2415 28.2896 76.5655L22.1403 72.0071C22.0942 71.9726 22.032 71.9786 21.9916 72.02C21.9513 72.0617 21.9468 72.1257 21.9802 72.1731L26.6146 78.6929L26.4522 78.9648C26.1274 78.6323 25.1159 77.6719 24.214 77.5937C24.0491 77.5794 23.8591 77.6483 23.6747 77.7136C23.4917 77.7788 23.3027 77.8453 23.1771 77.8179C23.0043 77.7801 22.7647 77.5818 22.5332 77.3894C22.1955 77.1081 21.8476 76.8184 21.5379 76.8671C20.554 77.025 19.5335 76.7247 19.5229 76.7223C19.4849 76.7104 19.4435 76.7211 19.4136 76.7483C19.3835 76.7757 19.3696 76.8172 19.3779 76.8575C19.3847 76.8992 19.5771 77.8821 21.3684 78.097C21.6277 78.1279 21.9548 78.5054 22.2428 78.8378C22.5089 79.144 22.7613 79.4337 23.0078 79.5429C24.214 80.0759 25.3901 80.7657 25.6862 80.9425L25.6457 81.1407L17.3917 82.3527C17.3353 82.361 17.2926 82.411 17.2926 82.4692C17.2926 82.5285 17.333 82.5785 17.3895 82.5878L25.6735 83.9353L25.738 84.2119C25.4314 84.2523 24.6552 84.3804 24.0375 84.6997C23.6529 84.898 23.3729 85.1842 23.1264 85.4357C22.9513 85.6151 22.7993 85.7694 22.6564 85.8406C22.5539 85.8929 22.3361 85.9284 22.1057 85.9652C21.7669 86.0211 21.3834 86.0827 21.0874 86.2277C20.1589 86.6788 19.4976 87.7684 19.47 87.8148C19.4435 87.8598 19.448 87.9168 19.4814 87.9561C19.5161 87.9963 19.5702 88.0069 19.6163 87.9857C19.6266 87.9797 20.6773 87.4776 21.5999 87.22C21.797 87.1654 22.2243 87.17 22.5676 87.1749C22.9259 87.1785 23.1505 87.1796 23.26 87.1441C23.571 87.0444 23.9213 86.8983 24.2599 86.7583C24.6343 86.6039 24.9879 86.4566 25.2414 86.3901C25.5905 86.2964 26.2265 86.3321 26.5466 86.3582L21.994 93.0476C21.9617 93.095 21.9675 93.1603 22.009 93.2007C22.0505 93.2423 22.1138 93.2447 22.1588 93.209L28.4637 88.1851L28.7159 88.3526C28.466 88.7027 27.6756 89.8399 27.5765 90.3622C27.5431 90.5369 27.602 90.7672 27.664 91.0104C27.7136 91.2063 27.7644 91.4083 27.7482 91.5258C27.7148 91.7703 27.512 92.1465 27.3336 92.4788C27.1965 92.7354 27.0674 92.9764 27.004 93.1663C26.8198 93.7289 26.7148 95.6961 26.7103 95.7804C26.7069 95.8398 26.7472 95.8919 26.8046 95.9027C26.8611 95.9133 26.9175 95.8801 26.9349 95.823C26.9372 95.8149 27.1836 95.0348 27.5547 94.4566C27.6792 94.2644 27.746 94.0673 27.8103 93.8773C27.8991 93.6163 27.9762 93.3895 28.1859 93.2434C28.9464 92.7116 29.1374 92.0445 29.2907 91.5078C29.3507 91.299 29.4071 91.102 29.4901 90.9464C29.6513 90.6413 30.4808 89.8163 30.9359 89.3806L32.1973 97.4815C32.2064 97.5384 32.2547 97.5812 32.3113 97.5812C32.3678 97.5812 32.4161 97.5384 32.4253 97.4815L33.6487 89.4945C33.9298 90.068 34.5104 91.2136 34.8458 91.6196C34.9287 91.7203 35.0738 91.8164 35.2258 91.9187C35.4009 92.0337 35.5979 92.1655 35.6498 92.276C35.7212 92.4316 35.712 92.7056 35.7029 92.9705C35.6913 93.2849 35.6786 93.6103 35.7973 93.8263C36.0588 94.3048 37.3132 95.011 37.4561 95.0894C37.4999 95.1143 37.554 95.106 37.5897 95.0705C37.6266 95.0348 37.6358 94.9791 37.614 94.9327C37.6071 94.9197 36.9815 93.5865 36.8743 93.0049C36.8513 92.8778 36.8836 92.6463 36.9182 92.4006C36.9884 91.8914 37.0771 91.2561 36.7983 90.8503C36.3548 90.2079 36.1773 88.8523 36.1198 88.2873L42.6562 93.0785C42.7023 93.1129 42.7645 93.1069 42.8048 93.0666C42.844 93.0251 42.8498 92.9609 42.8164 92.9135L38.2591 86.3308C38.8121 86.6371 39.6852 87.0822 40.1231 87.0905C40.267 87.0905 40.494 87.011 40.7336 86.9243C40.9513 86.8448 41.1978 86.7547 41.3071 86.7642C41.5745 86.7867 41.8647 87.0918 42.146 87.3862C42.4073 87.6628 42.6793 87.9476 42.9637 88.0356C43.1101 88.0807 43.3532 88.096 43.6216 88.096C44.2309 88.096 44.9729 88.0154 45.0179 88.0095C45.0685 88.0048 45.11 87.9644 45.1191 87.9121C45.1272 87.8598 45.1008 87.8075 45.0548 87.785C45.0409 87.778 43.7231 87.1298 43.3543 86.8473C43.1769 86.7119 42.9672 86.4556 42.7438 86.1824C42.4179 85.786 42.0814 85.3751 41.7612 85.2303C41.5826 85.1508 41.3187 85.1532 41.0389 85.1568C40.7715 85.1604 40.495 85.1627 40.3591 85.0868C40.0366 84.9076 39.3166 84.0456 38.9446 83.578L46.0696 82.341C46.1237 82.3315 46.1641 82.2779 46.1652 82.2199C46.1664 82.1629 46.1272 82.1083 46.0719 82.0964L39.8408 80.8286H50.6142Z" fill="#EE1D24"/>
<path d="M92.7787 92.432V93.8873C92.7787 100.433 88.0245 105.759 82.1803 105.759H61.3292C57.1069 105.759 54.3918 107.963 52.8574 109.812C52.1822 110.627 51.6731 111.438 51.3066 112.117V93.0931C51.7769 93.0514 52.4784 92.2645 53.6879 92.2645C55.3526 92.2645 56.1187 93.4194 56.9895 93.4124C57.8248 93.4064 59.3038 92.2681 60.1391 92.2645C60.9917 92.2609 62.5111 93.4172 63.3647 93.4124C64.1907 93.4077 65.6492 92.274 66.475 92.2645C67.3553 92.2549 68.9357 93.4207 69.8161 93.4124C70.651 93.4041 72.129 92.2609 72.9643 92.2645C73.7812 92.2681 75.2199 93.4172 76.0366 93.4124C76.8257 93.4077 78.2036 92.2847 78.9927 92.2645C79.9004 92.2419 81.5421 93.4351 82.4487 93.4124C83.2391 93.3922 84.6156 92.2847 85.4059 92.2645C86.3137 92.2419 87.9542 93.429 88.8618 93.4124C89.6786 93.397 91.1176 92.2858 91.9343 92.2645C92.1245 92.2598 92.485 92.3191 92.7787 92.432Z" fill="white"/>
<path d="M92.7787 59.4604V90.8884C92.485 90.7756 92.1245 90.7163 91.9343 90.7209C91.1176 90.7422 89.6786 91.8535 88.8618 91.8688C87.9542 91.8854 86.3137 90.6984 85.4059 90.7209C84.6156 90.7411 83.2391 91.8486 82.4487 91.8688C81.5421 91.8916 79.9004 90.6984 78.9927 90.7209C78.2036 90.7411 76.8257 91.8641 76.0366 91.8688C75.2199 91.8737 73.7812 90.7245 72.9643 90.7209C72.129 90.7173 70.651 91.8605 69.8161 91.8688C68.9357 91.8773 67.3553 90.7114 66.475 90.7209C65.6492 90.7305 64.1907 91.8641 63.3647 91.8688C62.5111 91.8737 60.9917 90.7173 60.1391 90.7209C59.3038 90.7245 57.8248 91.8629 56.9895 91.8688C56.1187 91.876 55.3526 90.7209 53.6879 90.7209C52.4784 90.7209 51.7769 91.5079 51.3066 91.5495V80.8287H66.8587V59.4604H92.7787Z" fill="white"/>
<path d="M50.6142 21.6291V37.3798H34.1407V59.1042H8.2207V5.56494H50.6142V19.6419C49.7272 18.5545 46.4268 14.7403 43.7115 14.5871C42.2335 14.504 38.7681 17.4753 38.7681 17.4753C38.7681 17.4753 33.9874 12.6877 31.7214 12.8658C27.7852 13.1756 23.343 18.3467 23.343 18.3467C22.3131 18.4453 20.569 15.5831 17.4506 15.9666C13.4335 16.4616 8.98904 21.0771 8.99818 22.8578C8.99818 22.8578 13.8654 17.5941 17.2443 17.4753C21.3684 17.3306 26.5364 23.2139 26.5364 23.2139C26.9592 22.2642 24.0491 19.757 24.366 19.2786C25.7287 17.219 29.6905 14.5502 31.8332 14.6666C35.8549 14.885 40.4917 22.3758 40.7002 21.9473C41.0457 21.235 39.1334 19.2466 39.4641 18.4251C39.9063 17.3258 42.5975 16.2609 43.7507 16.3286C46.3703 16.4818 49.7169 20.493 50.6142 21.6291Z" fill="white"/>
<path d="M92.7787 90.8885V92.4318C92.485 92.3189 92.1245 92.2596 91.9343 92.2643C91.1176 92.2856 89.6786 93.3969 88.8618 93.4122C87.9542 93.4288 86.3137 92.2418 85.4059 92.2643C84.6156 92.2845 83.2391 93.392 82.4487 93.4122C81.5421 93.4349 79.9004 92.2418 78.9927 92.2643C78.2036 92.2845 76.8257 93.4075 76.0366 93.4122C75.2199 93.4171 73.7812 92.2679 72.9643 92.2643C72.129 92.2607 70.651 93.4039 69.8161 93.4122C68.9357 93.4205 67.3553 92.2547 66.475 92.2643C65.6492 92.2738 64.1907 93.4075 63.3647 93.4122C62.5111 93.4171 60.9917 92.2607 60.1391 92.2643C59.3038 92.2679 57.8248 93.4062 56.9895 93.4122C56.1187 93.4192 55.3526 92.2643 53.6879 92.2643C52.4784 92.2643 51.7769 93.0512 51.3066 93.0929V91.5496C51.7769 91.508 52.4784 90.721 53.6879 90.721C55.3526 90.721 56.1187 91.8761 56.9895 91.8689C57.8248 91.863 59.3038 90.7246 60.1391 90.721C60.9917 90.7174 62.5111 91.8738 63.3647 91.8689C64.1907 91.8642 65.6492 90.7306 66.475 90.721C67.3553 90.7115 68.9357 91.8774 69.8161 91.8689C70.651 91.8606 72.129 90.7174 72.9643 90.721C73.7812 90.7246 75.2199 91.8738 76.0366 91.8689C76.8257 91.8642 78.2036 90.7412 78.9927 90.721C79.9004 90.6985 81.5421 91.8916 82.4487 91.8689C83.2391 91.8487 84.6156 90.7412 85.4059 90.721C86.3137 90.6985 87.9542 91.8855 88.8618 91.8689C89.6786 91.8536 91.1176 90.7423 91.9343 90.721C92.1245 90.7163 92.485 90.7756 92.7787 90.8885Z" fill="#007DC6"/>
<path d="M50.6161 19.6417V21.629C49.7187 20.4929 46.3722 16.4816 43.7525 16.3285C42.5994 16.2608 39.9082 17.3257 39.4659 18.425C39.1353 19.2465 41.0476 21.2349 40.702 21.9472C40.4935 22.3756 35.8568 14.8849 31.8351 14.6665C29.6923 14.5501 25.7305 17.2188 24.3679 19.2785C24.0509 19.7569 26.961 22.2641 26.5382 23.2138C26.5382 23.2138 21.3703 17.3304 17.2461 17.4752C13.8672 17.5939 9.00001 22.8576 9.00001 22.8576C8.99087 21.0769 13.4353 16.4615 17.4525 15.9665C20.5708 15.583 22.3149 18.4452 23.3448 18.3465C23.3448 18.3465 27.787 13.1755 31.7233 12.8657C33.9893 12.6876 38.77 17.4752 38.77 17.4752C38.77 17.4752 42.2353 14.5039 43.7133 14.587C46.4286 14.7401 49.7291 18.5543 50.6161 19.6417Z" fill="#007DC6"/>
<path d="M58.7132 61.3802C58.317 61.373 57.8262 60.4993 57.8262 60.0885C57.8262 59.7181 58.0888 59.3418 58.2593 58.7684C58.514 57.8959 58.7132 56.9082 58.7132 56.9082C58.7132 56.9082 59.0104 57.9125 59.3087 58.7696C59.5082 59.337 59.7499 59.7608 59.7499 60.0742C59.7499 60.4957 59.1245 61.3885 58.7132 61.3802Z" fill="white"/>
<path d="M58.7132 75.863C58.317 75.856 57.8262 74.9823 57.8262 74.5714C57.8262 74.2011 58.0888 73.8248 58.2593 73.2513C58.514 72.3789 58.7132 71.3911 58.7132 71.3911C58.7132 71.3911 59.0104 72.3955 59.3087 73.2526C59.5082 73.82 59.7499 74.2438 59.7499 74.5572C59.7499 74.9774 59.1245 75.8715 58.7132 75.863Z" fill="white"/>
<path d="M55.6799 69.096C54.9323 69.096 54.7168 67.7653 54.7168 67.0377C54.7168 66.3775 54.9796 66.3005 55.1501 65.2819C55.4046 63.729 55.604 61.3799 55.604 61.3799C55.604 61.3799 55.901 63.7588 56.1995 65.2819C56.3987 66.292 56.6407 66.4536 56.6407 67.0103C56.6407 67.7607 56.3721 69.096 55.6799 69.096Z" fill="white"/>
<path d="M52.3383 76.8125C51.5917 76.8125 51.375 75.6385 51.375 74.9963C51.375 74.4134 51.6388 74.3469 51.8071 73.4471C52.063 72.0771 52.2622 70.002 52.2622 70.002C52.2622 70.002 52.5594 72.1021 52.8577 73.4482C53.0571 74.3397 53.2989 74.481 53.2989 74.9725C53.2989 75.6349 53.0305 76.8125 52.3383 76.8125Z" fill="white"/>
<path d="M48.8129 62.2113C49.0697 61.3387 49.2691 60.3511 49.2691 60.3511C49.2691 60.3511 49.5651 61.3553 49.8646 62.2124C50.0629 62.7799 50.3058 63.2038 50.3058 63.5171C50.3058 63.9374 49.6792 64.8312 49.2691 64.8229C48.8706 64.8159 48.3809 63.9421 48.3809 63.5314C48.3809 63.1609 48.6447 62.7846 48.8129 62.2113Z" fill="white"/>
<path d="M46.2778 74.201C46.5346 73.3286 46.7339 72.3408 46.7339 72.3408C46.7339 72.3408 47.0299 73.345 47.3295 74.2021C47.5278 74.7697 47.7707 75.1935 47.7707 75.5069C47.7707 75.9271 47.144 76.821 46.7339 76.8127C46.3354 76.8057 45.8457 75.9318 45.8457 75.5211C45.8457 75.1508 46.1096 74.7744 46.2778 74.201Z" fill="white"/>
<path d="M43.3989 66.5189C43.6557 64.5543 43.855 61.5781 43.855 61.5781C43.855 61.5781 44.1512 64.5898 44.4507 66.5225C44.6488 67.801 44.892 68.0029 44.892 68.7103C44.892 69.6601 44.6234 71.3517 43.9299 71.3517C43.1835 71.3517 42.9668 69.6648 42.9668 68.7437C42.9668 67.9079 43.2306 67.8118 43.3989 66.5189Z" fill="white"/>
<path d="M39.7112 59.7181C39.9682 58.8456 40.1675 57.8579 40.1675 57.8579C40.1675 57.8579 40.4635 58.8622 40.7631 59.7194C40.9612 60.2868 41.2043 60.7106 41.2043 61.024C41.2043 61.4442 40.5776 62.3381 40.1675 62.3298C39.7688 62.3228 39.2793 61.4489 39.2793 61.0382C39.2793 60.6679 39.543 60.2914 39.7112 59.7181Z" fill="white"/>
<path d="M39.9371 76.5754C39.5386 76.5684 39.0488 75.6945 39.0488 75.2838C39.0488 74.9135 39.3127 74.537 39.4809 73.9637C39.7377 73.0913 39.9371 72.1035 39.9371 72.1035C39.9371 72.1035 40.2331 73.1079 40.5326 73.965C40.7309 74.5324 40.9738 74.9562 40.9738 75.2696C40.9738 75.6898 40.3471 76.5837 39.9371 76.5754Z" fill="white"/>
<path d="M62.8227 49.0137C62.8227 49.0137 61.2674 54.5931 49.2302 54.5931C37.2493 54.5931 35.6367 49.0137 35.6367 49.0137H62.8227Z" fill="white"/>
<path d="M52.3396 76.8126C53.0319 76.8126 53.3003 75.6349 53.3003 74.9725C53.3003 74.4811 53.0584 74.3397 52.8591 73.4482C52.5608 72.1022 52.2635 70.002 52.2635 70.002C52.2635 70.002 52.0644 72.0771 51.8084 73.4471C51.6402 74.3469 51.3764 74.4135 51.3764 74.9963C51.3764 75.6385 51.5931 76.8126 52.3396 76.8126ZM49.2694 64.8227C49.6795 64.831 50.3062 63.9371 50.3062 63.5168C50.3062 63.2035 50.0633 62.7796 49.865 62.2121C49.5655 61.355 49.2694 60.3508 49.2694 60.3508C49.2694 60.3508 49.0701 61.3384 48.8133 62.211C48.6451 62.7843 48.3812 63.1606 48.3812 63.5311C48.3812 63.9418 48.8709 64.8156 49.2694 64.8227ZM46.735 76.8126C47.1451 76.8209 47.7718 75.927 47.7718 75.5067C47.7718 75.1934 47.5288 74.7695 47.3306 74.202C47.031 73.3449 46.735 72.3407 46.735 72.3407C46.735 72.3407 46.5357 73.3285 46.2789 74.2009C46.1106 74.7742 45.8468 75.1507 45.8468 75.521C45.8468 75.9317 46.3365 76.8055 46.735 76.8126ZM43.9299 71.3518C44.6234 71.3518 44.892 69.6602 44.892 68.7104C44.892 68.003 44.6488 67.801 44.4507 66.5226C44.1512 64.5899 43.855 61.5782 43.855 61.5782C43.855 61.5782 43.6557 64.5544 43.3989 66.519C43.2306 67.8119 42.9668 67.9079 42.9668 68.7438C42.9668 69.6649 43.1835 71.3518 43.9299 71.3518ZM40.1687 62.3296C40.5788 62.3379 41.2055 61.4441 41.2055 61.0238C41.2055 60.7105 40.9624 60.2866 40.7643 59.7192C40.4647 58.8621 40.1687 57.8578 40.1687 57.8578C40.1687 57.8578 39.9694 58.8455 39.7124 59.718C39.5442 60.2913 39.2805 60.6677 39.2805 61.0381C39.2805 61.4488 39.77 62.3226 40.1687 62.3296ZM39.9383 76.5751C40.3484 76.5834 40.975 75.6896 40.975 75.2693C40.975 74.956 40.7321 74.5321 40.5338 73.9647C40.2343 73.1076 39.9383 72.1033 39.9383 72.1033C39.9383 72.1033 39.7389 73.0911 39.4821 73.9635C39.3139 74.5368 39.05 74.9132 39.05 75.2835C39.05 75.6942 39.5398 76.5681 39.9383 76.5751ZM35.6379 49.0137C35.6379 49.0137 37.2506 54.5932 49.2315 54.5932C61.2686 54.5932 62.8239 49.0137 62.8239 49.0137H35.6379ZM57.8277 74.5712C57.8277 74.9821 58.3185 75.8558 58.7147 75.8628C59.126 75.8713 59.7514 74.9772 59.7514 74.557C59.7514 74.2436 59.5097 73.8198 59.3102 73.2524C59.0119 72.3953 58.7147 71.3909 58.7147 71.3909C58.7147 71.3909 58.5155 72.3787 58.2608 73.2512C58.0903 73.8247 57.8277 74.2009 57.8277 74.5712ZM57.8277 60.0884C57.8277 60.4992 58.3185 61.3729 58.7147 61.3801C59.126 61.3884 59.7514 60.4956 59.7514 60.0741C59.7514 59.7607 59.5097 59.3369 59.3102 58.7695C59.0119 57.9124 58.7147 56.9081 58.7147 56.9081C58.7147 56.9081 58.5155 57.8958 58.2608 58.7683C58.0903 59.3417 57.8277 59.718 57.8277 60.0884ZM55.6804 69.0962C56.3726 69.0962 56.6412 67.7608 56.6412 67.0105C56.6412 66.4537 56.3991 66.2922 56.2 65.282C55.9015 63.759 55.6044 61.3801 55.6044 61.3801C55.6044 61.3801 55.4051 63.7292 55.1505 65.282C54.98 66.3007 54.7172 66.3777 54.7172 67.0379C54.7172 67.7655 54.9328 69.0962 55.6804 69.0962ZM57.026 40.5258C56.6181 40.495 54.3717 43.0532 54.1839 42.7813C53.2968 41.4922 49.9699 37.9355 49.6772 38.4697C49.0701 39.5772 43.7179 43.2787 43.7179 43.2787C43.7179 43.2787 42.6005 41.9504 42.1661 41.2381C42.1661 41.2381 38.2102 44.8291 38.2102 46.383C38.2102 46.8769 38.4555 48.1886 38.7482 48.2825C38.7482 48.2825 39.557 47.4895 40.4716 46.8995C41.3932 46.3059 41.99 45.1294 42.4634 45.1164C42.9819 45.1022 45.1154 47.4111 45.1154 47.4111C45.1154 47.4111 47.9157 42.462 49.3202 42.855C52.0561 43.6218 53.2059 47.5512 53.4156 47.2141C54.0147 46.2537 55.0259 46.281 55.5812 45.9023C55.8415 45.7253 56.3692 44.9942 56.6802 44.9977C58.043 45.0119 58.9451 48.2825 58.9451 48.2825C58.9451 48.2825 60.097 47.1796 60.097 45.6708C60.097 44.0623 57.6686 40.5757 57.026 40.5258ZM66.8593 80.8287H34.1426V37.3799H66.8593V80.8287Z" fill="#007DC6"/>
<path d="M54.1828 42.7814C54.3705 43.0532 56.617 40.495 57.0248 40.5259C57.6674 40.5757 60.0959 44.0623 60.0959 45.6708C60.0959 47.1797 58.944 48.2825 58.944 48.2825C58.944 48.2825 58.0419 45.012 56.679 44.9977C56.3681 44.9942 55.8404 45.7254 55.58 45.9023C55.0247 46.281 54.0135 46.2537 53.4144 47.2141C53.2047 47.5513 52.0549 43.6219 49.3191 42.855C47.9146 42.4621 45.1142 47.4112 45.1142 47.4112C45.1142 47.4112 42.9807 45.1022 42.4622 45.1165C41.9888 45.1294 41.392 46.3059 40.4704 46.8995C39.5558 47.4895 38.7471 48.2825 38.7471 48.2825C38.4544 48.1887 38.209 46.877 38.209 46.3831C38.209 44.8292 42.1649 41.2381 42.1649 41.2381C42.5993 41.9504 43.7167 43.2788 43.7167 43.2788C43.7167 43.2788 49.0689 39.5773 49.6761 38.4698C49.9688 37.9356 53.2956 41.4922 54.1828 42.7814Z" fill="#EE1C24"/>
</svg>
