<svg width="70" height="70" viewBox="0 0 70 70" fill="none" xmlns="http://www.w3.org/2000/svg">
<path d="M55.6276 2.5V50.8555C55.6276 52.6701 55.0077 54.3915 53.8817 55.7025C52.7203 57.0555 51.1502 57.8001 49.4603 57.8001H38.2976C36.6398 57.8001 35.2441 58.4733 34.1482 59.8019C33.3212 60.8057 32.9838 61.8268 32.9807 61.8371L32.7654 62.5L32.5175 61.8499C32.5108 61.8319 32.113 60.8108 31.257 59.807C30.121 58.4753 28.7543 57.8001 27.1965 57.8001H16.0337C12.4857 57.8001 9.37305 54.5548 9.37305 50.8555V2.5H55.6276Z" fill="black"/>
<path d="M43.0293 16.1746C42.851 16.5353 42.6808 17.0079 42.7449 17.7963C42.5766 17.6427 42.3108 17.4279 42.1726 17.451C42.1566 17.4535 42.1425 17.4626 42.1332 17.4761C42.1085 17.5102 41.5929 18.2342 41.3445 18.9396C41.274 18.4342 41.1809 17.3005 41.6175 16.5848C41.6392 16.5495 41.6318 16.5154 41.617 16.4954C41.5966 16.4672 41.567 16.4254 41.2272 16.516C41.2765 16.3244 41.39 15.9199 41.5177 15.7187C41.6022 15.5862 41.7557 15.3837 41.9193 15.1695C42.3484 14.605 42.6296 14.2217 42.6296 14.0423C42.6296 13.7999 42.5674 13.634 42.4501 13.562C42.3453 13.4977 42.209 13.5131 42.045 13.6083C41.4276 13.9658 40.4273 16.3405 40.2737 17.7333C40.1856 17.4317 40.061 16.8858 40.0474 16.4594C40.0387 16.1996 40.093 15.9411 40.151 15.6679C40.1979 15.4454 40.246 15.2152 40.2633 14.9715C40.2737 14.8198 40.2015 14.7927 40.1374 14.7869C40.1313 14.7863 40.1226 14.785 40.1226 14.7869C40.117 14.7773 40.1004 14.7194 40.1713 14.4397C40.2534 14.1169 40.835 13.2759 41.1668 12.8283C41.1668 12.8283 41.1822 12.7871 41.1834 12.7672C41.184 12.7453 41.1483 12.7151 41.1286 12.7183C41.1137 12.7202 41.0829 12.7364 41.0829 12.7364C41.0717 12.7447 39.9457 13.5697 39.6663 13.9555C39.2876 14.4789 39.0668 15.2814 38.8386 16.4672C38.7553 16.1752 38.5894 15.7611 38.3069 15.7148C38.2903 15.7123 38.2743 15.7161 38.2614 15.7264C38.2237 15.7541 37.3911 16.4022 36.7874 18.6547C36.7602 17.7178 36.8294 15.4017 38.0819 14.3497C38.13 14.3092 38.1196 14.2712 38.1084 14.2526C38.0788 14.1986 38.0454 14.2121 37.9043 14.2699C37.8186 14.3053 37.5787 14.4037 37.4812 14.4075C37.5422 14.2314 37.7421 13.6957 37.9893 13.3928C38.1744 13.1665 38.701 12.6334 39.596 12.5794C39.6718 12.5749 39.6934 12.5325 39.6995 12.5074C39.7162 12.438 39.6873 12.357 39.1859 12.0277C39.4529 11.912 40.1615 11.6239 40.7079 11.5744C40.851 11.5609 41.041 11.5615 41.242 11.5622C41.8372 11.5635 42.2349 11.5525 42.3496 11.3789C42.3743 11.341 42.3965 11.278 42.3632 11.1892C42.1707 10.678 41.408 10.7635 40.9028 10.8201C40.811 10.8304 40.732 10.8394 40.6678 10.8433C40.0424 10.8819 38.9817 11.2259 38.2404 11.7306C38.402 11.3892 38.819 10.6954 39.6743 10.2491C39.7354 10.2176 39.736 10.179 39.726 10.152C39.7026 10.0903 39.6965 10.0742 39.0187 10.2819C39.1334 10.1051 39.3357 9.81316 39.5071 9.67166C40.0677 9.21062 41.3419 9.26721 41.3542 9.26785C41.382 9.26848 41.4073 9.25115 41.4159 9.22351C41.456 9.09553 41.2925 8.97014 41.1033 8.82419C41.0268 8.76565 40.8978 8.66663 40.8504 8.60427C41.0644 8.56956 41.7304 8.46858 42.1165 8.49622C42.7098 8.53801 43.1649 8.6261 44.0425 9.42542L44.0431 9.42605C44.0431 9.42605 44.0783 9.45305 44.0925 9.45242C44.1048 9.45242 44.1387 9.42668 44.1456 9.41575C44.1554 9.39905 44.1406 9.34954 44.1406 9.34954C44.1356 9.33987 43.6448 8.42488 43.1261 7.70916C43.3407 7.81272 43.6257 7.92712 43.749 7.87375C43.786 7.85769 43.8107 7.82942 43.8218 7.7908C43.8248 7.77991 43.8248 7.76834 43.8223 7.7574C43.815 7.72717 43.6386 7.05457 42.1165 6.63015C42.5581 6.56975 43.3568 6.49451 43.7374 6.6739C44.1147 6.85139 44.7345 7.62107 44.7407 7.62878C44.7561 7.64807 44.7808 7.65642 44.8042 7.64939C44.8277 7.64294 44.8449 7.62297 44.8493 7.59792C44.8961 7.29573 44.6883 6.8115 44.5674 6.56331C45.0768 6.84299 45.6029 7.79275 45.5745 8.75989C45.5659 9.05759 45.6954 9.10002 45.7521 9.1052C45.8594 9.11418 45.9847 9.00549 45.9982 8.88977C46.0833 8.15862 46.0524 7.07322 46.0364 6.49065C46.0352 6.4572 46.0346 6.42502 46.0333 6.39548C46.1648 6.66423 46.4083 7.26228 46.6199 7.82107C46.6285 7.84421 46.6501 7.86028 46.6741 7.86155C46.6976 7.86287 46.7204 7.84934 46.7315 7.82747C46.7383 7.81399 47.379 6.56331 48.0592 6.36267C47.9903 6.60896 47.8817 7.07126 48.0056 7.19988C48.0191 7.21404 48.0383 7.22048 48.0574 7.2179C48.0766 7.21531 48.0932 7.2031 48.1024 7.18577C48.1161 7.16067 48.4288 6.60188 49.2927 6.7845C48.9967 7.03977 48.3035 7.67957 48.3905 7.99919C48.399 8.03259 48.4318 8.05256 48.4639 8.04421C48.6496 7.99851 48.94 7.95803 49.0455 8.00173C48.8166 8.1741 47.968 8.85183 47.7812 9.57268C47.7251 9.79128 47.7496 10.0466 47.844 10.2073C47.8884 10.2825 47.944 10.3302 48.005 10.3436C48.2943 10.4079 48.5779 9.87297 48.7852 9.48201C48.8339 9.38938 48.8764 9.30964 48.9104 9.25437C48.9406 9.20549 48.9727 9.1489 49.0066 9.08909C49.2077 8.73606 49.4783 8.25959 49.9175 8.25251L49.8466 8.62869C49.8417 8.65505 49.8527 8.68206 49.875 8.69622C49.8971 8.70969 49.9255 8.70779 49.9459 8.69104C49.9526 8.68528 50.5915 8.15803 51.5543 8.3509C51.3649 8.57146 51.135 8.88523 51.2299 9.01707C51.2891 9.10002 51.4617 9.1052 51.8146 9.10837C52.1353 9.1116 52.535 9.11614 52.8166 9.21643C53.4174 9.43054 54.089 9.77454 54.5664 10.6851C54.3216 10.5726 53.8318 10.3552 53.3009 10.1662C52.7699 9.97712 52.1975 9.81506 51.7881 9.81443C51.7645 9.81443 51.743 9.82859 51.7325 9.85046C51.722 9.87229 51.7251 9.89866 51.7393 9.91863L52.2258 10.5674C51.8639 10.5218 50.9474 10.4137 50.6052 10.4337C50.1383 10.4607 49.4734 10.75 49.1151 11.3223C49.0886 11.3648 49.0868 11.4111 49.1096 11.4503C49.1843 11.5782 49.5141 11.5782 49.698 11.5583C49.9921 11.5262 50.3665 11.4406 50.7284 11.3577C51.1096 11.2709 51.4691 11.1886 51.6819 11.1809C52.1019 11.1661 53.0942 11.1783 53.6173 11.5796L52.8192 11.8264C52.7939 11.8342 52.776 11.8579 52.7748 11.8856C52.7736 11.9126 52.7896 11.9377 52.8137 11.948C52.8235 11.9519 53.7511 12.3325 54.0416 12.492C54.3166 12.6425 54.6824 12.9113 54.7669 13.5266L54.3456 13.2945C54.3203 13.2803 54.2888 13.2862 54.2704 13.3086C54.2513 13.3311 54.2499 13.3646 54.2667 13.389C54.2715 13.3961 54.7644 14.1098 55.0777 14.8448C55.0974 14.8918 55.1165 14.9374 55.1338 14.9818V15.2975C54.8494 14.9207 54.4394 14.439 54.0106 14.149C53.9916 14.1362 53.9664 14.1356 53.946 14.1478C53.9262 14.16 53.9145 14.1831 53.9157 14.2075L53.9626 14.9213C53.6943 14.2378 53.2478 13.4687 52.7341 13.0746C52.7027 13.0495 52.6657 13.0456 52.6336 13.0623C52.5441 13.1099 52.5139 13.3768 52.5071 13.6424C52.1993 13.2945 51.2848 12.355 50.3492 12.3139C50.2159 12.3081 49.8096 12.3936 49.701 12.6193C49.6659 12.6913 49.648 12.8064 49.7584 12.9498C49.8139 13.0205 49.9557 13.0759 50.2462 13.1852C50.8204 13.4006 51.7689 13.7568 52.261 14.5175L51.9182 14.6159C51.8948 14.6223 51.8775 14.6423 51.8738 14.6667C51.8695 14.6911 51.8793 14.7156 51.8984 14.7303C51.9163 14.7432 53.5889 15.9856 54.0644 16.9314L53.6357 16.7019C53.6093 16.6877 53.5771 16.6948 53.5592 16.7192C53.5408 16.743 53.5413 16.7778 53.5605 16.8009C53.5692 16.8112 54.3665 17.8014 54.0428 18.784C53.8696 18.485 53.3872 17.6838 53.0529 17.3931C53.0339 17.3764 53.0092 17.37 52.9845 17.3751C52.9191 17.3892 52.8704 17.4774 52.7667 17.6896C52.744 17.7365 52.7131 17.7989 52.6885 17.8432C52.462 17.3089 51.7005 16.3129 51.6666 16.2691C51.6505 16.2479 51.6239 16.2395 51.5994 16.2479C51.5746 16.2563 51.558 16.2794 51.5567 16.3064C51.5487 16.5012 51.5247 16.7282 51.4982 16.8228C51.4106 16.7282 51.3125 16.6144 51.2102 16.4954C50.7716 15.9881 50.2751 15.4133 49.875 15.3985C49.7646 15.394 49.6671 15.4338 49.5869 15.5148C49.5714 15.5303 49.5635 15.5509 49.5635 15.5734C49.5628 15.6666 49.7232 15.8383 50.219 16.3463C50.7155 16.8549 51.3841 17.5397 51.7128 18.0702L51.3138 18.0451C51.2878 18.0432 51.2657 18.058 51.2546 18.0812C51.2434 18.1043 51.2471 18.1326 51.2638 18.1519C51.2699 18.1596 51.8781 18.8914 51.9706 19.6032C51.6702 19.4148 51.4815 19.3389 51.4099 19.3794C51.3817 19.3948 51.3649 19.4238 51.3643 19.4585C51.3365 20.6327 51.4156 22.9848 51.463 24.2253C51.0905 22.219 50.8191 20.0867 50.816 20.0623C50.8124 20.0327 50.7895 20.0096 50.7612 20.0064C50.7334 20.0038 50.7057 20.0218 50.6964 20.0501C50.6952 20.054 50.578 20.4051 50.3449 20.4218C50.2875 20.0707 49.9477 18.1712 49.2317 17.6613C49.0701 17.5455 48.898 17.5082 48.7223 17.5481C48.7007 17.5532 48.6834 17.5693 48.6766 17.5912C48.6699 17.6124 48.6747 17.6362 48.689 17.6535C48.6958 17.6619 49.3408 18.4457 49.249 19.7884C49.0152 19.3396 48.4422 18.3017 48.0987 18.2297C48.0389 18.2175 47.984 18.231 47.9403 18.2689C47.8811 18.3203 47.9045 18.404 48.0963 18.9595C48.343 19.6733 48.7555 20.8687 48.6138 21.4699C48.6082 21.4924 48.615 21.5162 48.6317 21.5323C48.6477 21.5484 48.6711 21.5535 48.6927 21.5464L49.1725 21.385C49.1114 21.8802 48.8894 22.7212 48.8191 22.9803L48.8147 22.9958C48.8147 22.9958 48.8159 23.0331 48.8228 23.0434C48.8284 23.0524 48.8476 23.0639 48.8573 23.0659C48.871 23.0691 48.9123 23.0639 48.9123 23.0639C49.1225 22.8968 49.3643 22.6949 49.526 22.5585C49.2484 23.3745 49.0238 24.7423 49.0133 24.8053C49.0104 24.8272 49.0177 24.8496 49.0338 24.8644C49.0491 24.8792 49.072 24.8844 49.0918 24.8779C49.3643 24.7944 49.5851 24.6702 49.7114 24.5892C49.5598 25.4959 48.8579 26.3498 48.8506 26.3588C48.8345 26.3781 48.8308 26.4064 48.8426 26.4296C48.8537 26.4527 48.8764 26.4669 48.9023 26.4649C49.1749 26.4411 49.5628 26.2508 49.7706 26.1389C49.6757 26.3794 49.5345 26.607 49.4075 26.8121C49.281 27.016 49.1725 27.1915 49.1237 27.3491C49.0893 27.4597 49.1053 27.7593 49.1158 27.8995H45.9118C46.0057 27.6346 46.251 26.825 46.1271 25.9145C46.2338 25.9942 46.4483 26.2148 46.6236 26.4154C46.6409 26.4353 46.6673 26.4418 46.6908 26.4327C46.7143 26.4231 46.7303 26.4 46.7308 26.3736C46.7426 25.8521 46.7204 25.067 46.4145 24.152C46.5557 24.2973 46.7821 24.5552 46.9849 24.7988C47.0022 24.8194 47.0312 24.8265 47.0552 24.8156C47.08 24.8046 47.0954 24.7782 47.0929 24.7506C47.0849 24.6593 46.9011 22.5875 46.4176 21.3657C46.5538 21.4827 46.7709 21.6892 46.9658 21.8853C46.9849 21.9046 47.0146 21.9091 47.038 21.8956C47.0615 21.8821 47.0744 21.8538 47.0689 21.8261C46.9825 21.3792 46.7253 20.8777 46.4762 20.3916C46.346 20.1369 46.2215 19.8939 46.1241 19.6649L46.7444 19.9524C46.766 19.9626 46.7914 19.9588 46.8091 19.9434C46.827 19.9273 46.8351 19.9029 46.8295 19.8791C46.8258 19.8623 46.4483 18.2284 46.2344 17.5198C46.227 17.4941 46.2042 17.4761 46.1783 17.4748C46.1517 17.4735 46.1283 17.4902 46.1185 17.5153L45.7188 18.5718L45.3223 18.213C45.3044 18.1969 45.2791 18.193 45.2575 18.2027C45.2359 18.2123 45.2211 18.2336 45.2199 18.258L45.1015 20.4481C44.9429 20.0867 44.6574 19.2798 44.6956 18.2085C44.6962 18.1815 44.6814 18.1571 44.658 18.1468C44.6346 18.1365 44.6076 18.1422 44.5897 18.1609L44.1486 18.6335C44.1925 18.0599 44.3984 17.2671 44.4002 17.2581C44.4083 17.2285 44.3948 17.197 44.3682 17.1835C44.3416 17.17 44.3096 17.1783 44.2917 17.2028L43.7805 17.9159C43.7503 17.6838 43.8008 17.4812 43.8428 17.3134C43.8871 17.1359 43.9254 16.9829 43.8551 16.8555C43.8415 16.8311 43.8192 16.8144 43.7934 16.8079C43.7262 16.7926 43.6491 16.8504 43.5596 16.9167C43.535 16.9346 43.5023 16.9591 43.4771 16.9751C43.453 16.7135 43.6219 16.2312 43.7588 15.8389C43.9211 15.376 44.0099 15.1072 43.9531 14.9811C43.9383 14.9483 43.9143 14.9252 43.8834 14.9143C43.5696 14.7985 43.3432 15.3843 43.1612 15.8556C43.1107 15.9862 43.0669 16.0994 43.0293 16.1746Z" fill="#FDDA17"/>
<path d="M29.7737 44.5276L29.7583 44.5303L29.7725 44.5334L26.1894 45.163C26.1677 45.1668 26.1504 45.1816 26.1424 45.2028V45.2034C26.1344 45.2247 26.1381 45.2491 26.1517 45.2658C26.1523 45.2671 26.1542 45.269 26.1554 45.2717C26.1566 45.2723 26.1573 45.2736 26.1585 45.2755C26.1597 45.2762 26.161 45.278 26.1628 45.28C26.2054 45.3354 26.3577 45.532 26.5291 45.732C26.5409 45.7456 26.5526 45.7584 26.5636 45.7713C26.6217 45.8381 26.6815 45.9037 26.7389 45.9642C26.7616 45.988 26.7845 46.0111 26.8067 46.033C26.8288 46.0542 26.8505 46.0748 26.8715 46.094C26.8923 46.1127 26.9128 46.1301 26.9319 46.1461C26.9466 46.1577 26.9603 46.168 26.9737 46.1776C26.9874 46.1866 26.9997 46.195 27.012 46.2015C27.0471 46.2214 27.0886 46.2343 27.1354 46.242C27.1446 46.2439 27.1539 46.2451 27.1637 46.2465C27.2451 46.2574 27.3389 46.2567 27.4364 46.2555C27.5665 46.2542 27.7016 46.2522 27.7725 46.2851C27.918 46.3513 28.0962 46.5712 28.2535 46.7653C28.3781 46.919 28.4952 47.0638 28.6007 47.1454C28.7408 47.2541 29.1033 47.447 29.3328 47.5653C29.0497 47.5891 28.6482 47.609 28.5014 47.5627C28.3793 47.5248 28.2449 47.3827 28.116 47.2444C27.9494 47.0683 27.778 46.885 27.5886 46.8689C27.5042 46.8625 27.371 46.9107 27.2304 46.9628C27.1237 47.002 27.0046 47.0445 26.9473 47.0457C26.7061 47.0412 26.0993 46.7113 25.7743 46.514C25.7724 46.5127 25.7706 46.512 25.7687 46.5107L25.7262 46.4844L25.6891 46.5256L25.6651 46.552L25.6948 46.6149L28.0735 50.0918L24.7641 47.6373C24.7443 47.6226 24.7191 47.6213 24.6981 47.6334C24.6778 47.6457 24.6654 47.6688 24.6667 47.6939C24.6697 47.739 24.7419 48.8121 25.0638 49.2854C25.1853 49.4635 25.1415 49.7786 25.107 50.0326C25.086 50.1824 25.0688 50.3117 25.0848 50.4011C25.1267 50.6338 25.3019 51.0537 25.4079 51.2948C25.1656 51.1463 24.8177 50.9103 24.7363 50.7599C24.6901 50.6743 24.6962 50.5168 24.7012 50.3645C24.7073 50.1979 24.7129 50.0403 24.6611 49.9278C24.6185 49.8346 24.5026 49.7567 24.3903 49.6809C24.3194 49.6339 24.2467 49.5845 24.2134 49.5438C23.9857 49.2648 23.5084 48.2502 23.5035 48.2398C23.4918 48.2147 23.4659 48.2006 23.4387 48.2045C23.4121 48.209 23.3913 48.2302 23.3869 48.2578L22.7622 52.3835L22.1301 48.2759C22.1263 48.2526 22.1109 48.2334 22.0893 48.2257C22.0678 48.218 22.0443 48.2225 22.0277 48.2386C21.9968 48.2675 21.2715 48.9575 21.1439 49.2012C21.0933 49.2976 21.0612 49.4108 21.0273 49.5311C20.9472 49.8159 20.8559 50.1387 20.4852 50.4004C20.3391 50.5039 20.2872 50.6582 20.2367 50.8081C20.2046 50.9039 20.1719 51.0023 20.114 51.0936C20.0356 51.2164 19.9684 51.3527 19.9141 51.4769C19.9394 51.1353 19.9826 50.6788 20.0388 50.5065C20.0683 50.4145 20.1348 50.2885 20.2058 50.1555C20.3119 49.9566 20.4211 49.7503 20.442 49.5946C20.4543 49.506 20.4248 49.389 20.3939 49.2654C20.3674 49.158 20.3366 49.0365 20.3489 48.971C20.4057 48.67 20.9706 47.8875 20.9761 47.8797C20.9866 47.8656 20.9903 47.8476 20.9872 47.8303C20.9848 47.8122 20.9749 47.7968 20.9601 47.7872L20.7332 47.6348C20.711 47.6199 20.6825 47.6213 20.6622 47.638L17.5743 50.1271L19.8389 46.7603C19.8512 46.7423 19.8538 46.7179 19.8444 46.6973C19.8358 46.6767 19.8167 46.6625 19.7951 46.66C19.7717 46.6573 19.2247 46.5956 18.9471 46.6702C18.8034 46.7088 18.6109 46.7897 18.4069 46.8753C18.2274 46.9499 18.0418 47.0277 17.8802 47.0805C17.8375 47.0946 17.6841 47.0927 17.5484 47.0914C17.3467 47.0889 17.1178 47.0856 16.9964 47.1203C16.6782 47.2104 16.3328 47.3537 16.12 47.4477C16.2619 47.2573 16.5098 46.9686 16.8071 46.8227C16.9495 46.7525 17.1457 46.7204 17.3183 46.6921C17.4564 46.6689 17.5761 46.6496 17.6483 46.613C17.7427 46.5654 17.8309 46.4747 17.9326 46.3693C18.0578 46.2394 18.2002 46.0928 18.389 45.9937C18.7806 45.7893 19.3202 45.7347 19.3258 45.7347C19.3437 45.7327 19.3597 45.723 19.3701 45.7076C19.3807 45.6928 19.3844 45.6735 19.38 45.6549L19.319 45.3932C19.3134 45.3681 19.2931 45.3494 19.269 45.3449L15.1992 44.6749L19.2549 44.0724C19.2807 44.0686 19.3011 44.0486 19.3067 44.0216L19.3461 43.8255C19.3517 43.7984 19.3399 43.7708 19.3171 43.7566C19.3097 43.7521 18.5808 43.3033 17.8302 42.9677C17.7236 42.9201 17.5921 42.7664 17.4645 42.6186C17.2875 42.4114 17.1037 42.198 16.9193 42.1755C16.3069 42.1009 16.0824 41.8553 16.0022 41.7125C16.199 41.7581 16.6067 41.8302 17.0137 41.764C17.1259 41.7466 17.298 41.8912 17.451 42.0192C17.5921 42.1382 17.7259 42.2507 17.8469 42.2777C17.9474 42.3002 18.0652 42.2578 18.1792 42.2166C18.2662 42.1852 18.3557 42.1536 18.418 42.1588C18.9428 42.2044 19.586 42.9131 19.5922 42.9201C19.6051 42.9349 19.6243 42.9419 19.6434 42.9407C19.6625 42.9381 19.6798 42.9271 19.6896 42.9098L19.8395 42.6559C19.8531 42.6339 19.8519 42.6057 19.837 42.5845L17.5614 39.3449L20.6875 41.69C20.7091 41.7066 20.7387 41.7061 20.7603 41.6894C20.7818 41.672 20.7905 41.6424 20.7813 41.616C20.7795 41.6115 20.616 41.1318 20.6721 40.8965C20.7443 40.5969 20.6055 40.3293 20.4716 40.0702C20.3767 39.8869 20.2786 39.6973 20.2571 39.4992C20.2459 39.3918 20.2564 39.258 20.2669 39.1282C20.2749 39.0278 20.283 38.9327 20.2811 38.8459C20.2768 38.6209 20.1263 38.0383 20.0072 37.6126C20.2545 37.8453 20.6302 38.224 20.7103 38.4073C20.7443 38.4864 20.7467 38.635 20.7492 38.7783C20.7516 38.9475 20.7541 39.1076 20.8028 39.2124C20.8651 39.3487 21.0273 39.4947 21.1846 39.6355C21.3049 39.7436 21.4288 39.8548 21.4843 39.9436C21.546 40.0426 21.5904 40.3036 21.6292 40.5339C21.6891 40.8855 21.7273 41.0875 21.8167 41.1466C21.8347 41.1582 21.8538 41.1646 21.8735 41.1646C21.8821 41.1646 21.8914 41.1633 21.9006 41.1608C21.9234 41.1543 21.9407 41.1345 21.945 41.1106L22.6684 37.1226L23.2531 41.0585C23.2574 41.0855 23.2765 41.1067 23.3024 41.1119C23.3222 41.1158 23.3425 41.11 23.3567 41.0952C23.361 41.0914 23.3642 41.0868 23.3672 41.0823L23.4554 40.9299L23.7422 40.4315V43.7824H26.1536L29.7737 44.5276Z" fill="#FDDA17"/>
<path d="M41.1582 16.6687C41.2649 16.6378 41.3895 16.6076 41.4684 16.5947C40.9312 17.5856 41.2519 19.1565 41.2662 19.2247C41.2723 19.2542 41.2969 19.2749 41.3253 19.2755C41.3512 19.2768 41.379 19.2562 41.3864 19.2272C41.556 18.5476 42.1074 17.7329 42.2141 17.5792C42.3177 17.5972 42.5785 17.8042 42.7803 18.0036C42.7993 18.0229 42.8271 18.0267 42.8505 18.0145C42.8739 18.0023 42.8868 17.9766 42.8838 17.9496C42.7844 17.0956 42.9479 16.6204 43.1391 16.234C43.1793 16.1529 43.2235 16.0378 43.2755 15.9035C43.4118 15.5511 43.6399 14.9607 43.8403 15.0341C43.8872 15.0965 43.7404 15.517 43.643 15.7954C43.4845 16.2488 43.305 16.7625 43.3629 17.0468C43.3698 17.0783 43.3889 17.1027 43.4155 17.1136C43.4753 17.1374 43.5406 17.0886 43.6313 17.0217C43.6658 16.9959 43.725 16.9522 43.7565 16.9387C43.7885 17.0197 43.7596 17.1368 43.7231 17.2814C43.6696 17.4962 43.6029 17.7637 43.6886 18.0865C43.6948 18.1097 43.7134 18.1277 43.7362 18.1322C43.7596 18.1367 43.783 18.1271 43.7971 18.1078L44.2068 17.5367C44.1302 17.8743 44.0229 18.4145 44.0173 18.8003C44.0168 18.8267 44.0322 18.8504 44.0556 18.8601C44.079 18.8704 44.1055 18.8646 44.1234 18.8459L44.5688 18.3682C44.5588 19.779 45.0751 20.6843 45.0972 20.7236C45.1114 20.7474 45.1392 20.7596 45.1651 20.7525C45.1916 20.7455 45.2101 20.7216 45.2119 20.694L45.3359 18.3964L45.7035 18.7289C45.7189 18.7424 45.7393 18.7476 45.759 18.7424C45.7781 18.7373 45.7941 18.7231 45.8015 18.7039L46.1685 17.7348C46.3467 18.3663 46.5959 19.4195 46.6804 19.7822L46.0315 19.4819C46.0088 19.4709 45.9817 19.4761 45.9638 19.4941C45.9452 19.5121 45.9397 19.5398 45.9489 19.5642C46.055 19.8426 46.2068 20.1391 46.3677 20.4528C46.5718 20.8515 46.7822 21.2624 46.8944 21.6367C46.3437 21.0939 46.3005 21.1261 46.2585 21.157C46.2401 21.1711 46.2135 21.2039 46.2432 21.2714C46.6742 22.2405 46.8876 23.9753 46.9498 24.5618C46.3572 23.8615 46.3103 23.8911 46.2647 23.9194C46.245 23.9316 46.216 23.9625 46.242 24.0326C46.562 24.9064 46.6119 25.6716 46.6101 26.2105C46.1556 25.707 46.0766 25.7469 46.0415 25.7643C46.0242 25.7732 45.9853 25.8009 45.997 25.8768C46.1617 26.9525 45.7688 27.9293 45.7646 27.939C45.7566 27.9589 45.7584 27.9814 45.77 27.9994C45.7812 28.0174 45.8003 28.0283 45.8213 28.0283H49.1825C49.1997 28.0283 49.2163 28.0206 49.2281 28.0071C49.2398 27.9943 49.2453 27.9762 49.2441 27.9583C49.2288 27.7834 49.2145 27.4747 49.241 27.3892C49.2849 27.2477 49.3897 27.0786 49.5112 26.8825C49.6697 26.6266 49.849 26.3372 49.9429 26.0221C49.9508 25.997 49.9429 25.9694 49.9232 25.9527C49.9034 25.9359 49.8756 25.934 49.8534 25.9468C49.8485 25.9501 49.3989 26.2156 49.0486 26.3076C49.2713 26.0073 49.7726 25.253 49.8528 24.4647C49.8559 24.439 49.8436 24.4145 49.8227 24.4017C49.801 24.3895 49.7745 24.3908 49.7554 24.4062C49.7523 24.4081 49.5056 24.5965 49.1528 24.7225C49.2188 24.3413 49.46 23.0134 49.7252 22.3806C49.7363 22.3537 49.7283 22.3215 49.7055 22.3035C49.6826 22.2855 49.6511 22.2861 49.629 22.3054C49.6252 22.3086 49.2977 22.5896 48.9839 22.8436C49.0863 22.4546 49.2713 21.71 49.3058 21.2991C49.3077 21.2772 49.2984 21.2566 49.2824 21.2431C49.2663 21.2296 49.2448 21.2258 49.225 21.2322L48.7533 21.391C48.8389 20.73 48.4498 19.6041 48.2123 18.916C48.1309 18.68 48.0464 18.4357 48.0366 18.3572C48.0459 18.354 48.0574 18.3527 48.0742 18.356C48.3443 18.4125 48.9166 19.3918 49.2354 20.0362C49.2478 20.0613 49.2749 20.0748 49.3008 20.0696C49.328 20.0651 49.3484 20.0426 49.3514 20.0149C49.5063 18.7469 49.035 17.9264 48.8506 17.6615C48.956 17.6589 49.0603 17.6949 49.1627 17.7676C49.8916 18.2865 50.2283 20.4728 50.2315 20.4953C50.2358 20.5236 50.2581 20.5455 50.2858 20.5487C50.4954 20.5731 50.6373 20.4213 50.7212 20.2863C50.8112 20.9673 51.1177 23.1986 51.4964 25.044C51.5025 25.0743 51.5278 25.0948 51.5568 25.0948C51.5594 25.0948 51.5617 25.0948 51.5648 25.0942C51.5964 25.0903 51.6198 25.0608 51.6186 25.0273C51.6167 24.9888 51.452 21.1467 51.4871 19.4986C51.5773 19.5198 51.8153 19.6517 52.0101 19.7802C52.0292 19.7925 52.0539 19.7931 52.0737 19.7815C52.0934 19.7693 52.1051 19.7468 52.1044 19.723C52.0798 19.0929 51.6413 18.4415 51.447 18.1823L51.8232 18.2061C51.8455 18.2081 51.8677 18.1959 51.8794 18.1759C51.8911 18.1553 51.8918 18.1302 51.8806 18.1097C51.5723 17.5522 50.8402 16.8024 50.3055 16.2545C50.0316 15.9742 49.7486 15.6848 49.6943 15.5871C49.7455 15.5446 49.8041 15.5247 49.8707 15.5273C50.2186 15.5401 50.7175 16.1176 51.1184 16.5819C51.2356 16.7175 51.3459 16.8461 51.4439 16.949C51.4704 16.9773 51.5056 16.987 51.5378 16.9741C51.5667 16.9626 51.6383 16.9336 51.6709 16.4828C51.9029 16.7947 52.4653 17.574 52.6016 17.9624C52.6195 18.0139 52.6589 18.0203 52.6707 18.0209C52.7367 18.0248 52.7761 17.9541 52.8767 17.7477C52.9118 17.6763 52.9673 17.5631 53.0012 17.5168C53.3923 17.8814 53.9954 18.9507 54.0015 18.9623C54.0133 18.9829 54.0348 18.9951 54.0582 18.9938C54.0811 18.9925 54.1014 18.9777 54.1107 18.9559C54.4579 18.1412 54.0558 17.3246 53.8122 16.9413L54.165 17.1297C54.1878 17.1419 54.2156 17.1381 54.2347 17.1207C54.2531 17.1027 54.26 17.0751 54.2513 17.05C53.9386 16.178 52.4838 15.018 52.075 14.7042L52.3746 14.6187C52.3938 14.6135 52.4085 14.5994 52.416 14.5808C52.4233 14.5621 52.4215 14.5409 52.411 14.5235C51.9109 13.6734 50.8951 13.2921 50.2882 13.0645C50.0835 12.9873 49.8904 12.9146 49.8547 12.869C49.7707 12.761 49.801 12.698 49.8109 12.6774C49.8855 12.5231 50.2235 12.4382 50.3444 12.4427C51.4138 12.4896 52.5091 13.8374 52.5195 13.8509C52.5363 13.8721 52.5639 13.8792 52.588 13.8702C52.6127 13.8605 52.6287 13.8368 52.6287 13.8098C52.6275 13.5661 52.6491 13.2825 52.683 13.195C53.1943 13.6014 53.7314 14.5004 53.9954 15.3955C54.0047 15.427 54.0348 15.4463 54.0657 15.4398C54.0964 15.434 54.1181 15.4051 54.1162 15.3723L54.0478 14.3319C54.4492 14.6348 54.8285 15.0952 55.0852 15.4417C55.1024 15.4649 55.1184 15.4875 55.1339 15.5086V31.8222H41.2575V20.2477H32.9316V3.01465H55.1339V14.665C54.9279 14.2104 54.667 13.7783 54.5091 13.53L54.8119 13.6972C54.8316 13.7082 54.8557 13.7075 54.8748 13.6947C54.8933 13.6818 54.9039 13.6593 54.9026 13.6355C54.8464 12.8722 54.4166 12.552 54.099 12.3777C53.8757 12.2556 53.309 12.0157 53.0247 11.8974L53.7635 11.6685C53.7851 11.6621 53.801 11.6441 53.806 11.6215C53.8116 11.599 53.8042 11.5752 53.7882 11.5598C53.2812 11.0711 52.2482 11.0325 51.6783 11.0525C51.4539 11.0602 51.0888 11.1438 50.7021 11.2325C50.3438 11.3142 49.9724 11.3991 49.6851 11.4312C49.4352 11.4582 49.2601 11.4203 49.2207 11.3895C49.5562 10.857 50.1766 10.5875 50.612 10.5625C51.0228 10.538 52.3451 10.7123 52.358 10.7143C52.3826 10.7175 52.4074 10.7052 52.4196 10.6821C52.432 10.6596 52.4301 10.6313 52.4148 10.6107L51.9189 9.94902C52.8988 10.0255 54.6578 10.8692 54.6762 10.8782C54.6997 10.8892 54.728 10.884 54.746 10.8647C54.7645 10.8454 54.7687 10.8158 54.7577 10.7914C54.2575 9.71626 53.5161 9.33047 52.8562 9.09443C52.5559 8.98774 52.1452 8.98389 51.8159 8.98003C51.6155 8.97808 51.3663 8.97554 51.3298 8.94209C51.3102 8.88037 51.4915 8.6064 51.7178 8.35625C51.7326 8.33955 51.7383 8.31577 51.732 8.29326C51.7258 8.27139 51.7085 8.25469 51.687 8.24956C50.8593 8.04248 50.2499 8.33828 49.9971 8.49902L50.0527 8.20391C50.0563 8.18652 50.052 8.16787 50.0415 8.15308C50.031 8.13828 50.015 8.1293 49.9977 8.12734C49.439 8.07529 49.1158 8.64561 48.9005 9.02373C48.8673 9.08223 48.8358 9.13755 48.8069 9.18511C48.7705 9.24365 48.7273 9.32534 48.6773 9.41982C48.5206 9.71436 48.2309 10.2622 48.031 10.2178C48.0038 10.2121 47.9749 10.1844 47.9496 10.1407C47.8867 10.0339 47.8448 9.82109 47.9008 9.6063C48.1001 8.8353 49.1603 8.07461 49.1707 8.06758C49.1911 8.05278 49.2016 8.02769 49.1966 8.00195C49.1892 7.96211 49.1665 7.92803 49.1307 7.90356C48.9962 7.81294 48.6662 7.8689 48.5077 7.90293C48.5497 7.64702 49.0985 7.10815 49.4674 6.80205C49.4859 6.78731 49.4944 6.76284 49.4896 6.73906C49.4847 6.71465 49.4674 6.696 49.4452 6.68955C48.6478 6.46963 48.2278 6.82847 48.0699 7.01812C48.0649 6.86445 48.1266 6.56094 48.208 6.29795C48.2148 6.27671 48.2105 6.25356 48.1969 6.23687C48.1834 6.22017 48.1624 6.21113 48.1414 6.21436C47.4876 6.30503 46.8815 7.29785 46.6865 7.64829C46.0988 6.10698 46.0223 6.12432 45.9662 6.13589C45.9428 6.14106 45.9046 6.16035 45.9064 6.23882C45.9077 6.30244 45.9101 6.38989 45.9132 6.49473C45.9292 7.07407 45.96 8.16206 45.8762 8.88355C45.8706 8.92603 45.812 8.99478 45.7658 8.99478H45.7615C45.7189 8.99478 45.6943 8.89898 45.6979 8.77295C45.7281 7.75376 45.1096 6.56675 44.4497 6.38091C44.4256 6.37446 44.4003 6.38091 44.3849 6.40215C44.3696 6.42271 44.3677 6.44971 44.38 6.47222C44.3837 6.47866 44.6872 7.03228 44.7285 7.41812C44.5292 7.18403 44.0957 6.70176 43.788 6.55708C43.2144 6.28701 41.8441 6.54165 41.7861 6.55259C41.757 6.55772 41.736 6.58345 41.7355 6.61431C41.7349 6.64517 41.7552 6.67153 41.7842 6.67861C43.3037 7.02715 43.635 7.62319 43.6924 7.75952C43.6091 7.78398 43.2649 7.65215 42.9369 7.46699C42.9104 7.45215 42.8783 7.45928 42.8598 7.48237C42.8407 7.5062 42.8407 7.54092 42.8598 7.5647C43.2433 8.0502 43.6393 8.71377 43.8587 9.09829C43.1164 8.48613 42.663 8.40576 42.1252 8.36782C41.6479 8.33442 40.7974 8.48296 40.761 8.48872C40.7357 8.49326 40.716 8.51382 40.7111 8.5395C40.687 8.66426 40.8462 8.78643 41.03 8.92793C41.1021 8.9832 41.2212 9.07515 41.2735 9.13691C40.9664 9.1311 39.9458 9.14722 39.4307 9.57158C39.16 9.79409 38.8368 10.3368 38.8233 10.3593C38.8096 10.3825 38.811 10.4114 38.8269 10.4326C38.8424 10.4538 38.8689 10.4628 38.8936 10.4551C39.0218 10.4152 39.157 10.3747 39.2766 10.3394C38.37 10.9586 38.0629 11.8228 38.0407 11.8878L38.0295 11.9225C38.0295 11.9225 38.0271 11.9482 38.0333 11.9585C38.0445 11.9765 38.0918 11.9778 38.1122 11.9771C38.1209 11.9771 38.1325 11.9713 38.1437 11.9624C38.8652 11.4029 40.0197 11.0126 40.679 10.9721C40.7462 10.9676 40.8246 10.9586 40.9177 10.9483C41.3859 10.8962 42.0919 10.8165 42.2497 11.2364C42.264 11.275 42.2566 11.2942 42.2486 11.3065C42.1622 11.437 41.6305 11.4351 41.2427 11.4338C41.0386 11.4332 40.8456 11.4325 40.6969 11.446C39.9933 11.5109 39.0669 11.9398 39.0274 11.9585C39.0064 11.9682 38.993 11.9887 38.9911 12.0125C38.9898 12.0363 39.0009 12.0595 39.02 12.0717C39.3622 12.2916 39.4956 12.4009 39.548 12.4542C38.6308 12.5244 38.0881 13.0741 37.8958 13.3095C37.5831 13.6921 37.3542 14.3943 37.3444 14.4239C37.3382 14.4432 37.3413 14.465 37.3523 14.4817C37.4134 14.5711 37.5744 14.5351 37.7877 14.4547C36.3983 15.9253 36.6734 18.9507 36.6863 19.0845C36.6894 19.116 36.714 19.1546 36.7437 19.1546H36.748C36.7763 19.1546 36.8011 19.1224 36.8078 19.0935C37.353 16.7825 38.1739 15.9768 38.3127 15.854C38.584 15.9337 38.7443 16.5446 38.7838 16.7818C38.7894 16.8127 38.8146 16.8333 38.8443 16.8333C38.8726 16.8333 38.8998 16.8107 38.9053 16.7806C39.1508 15.4533 39.3703 14.5788 39.765 14.0335C39.9316 13.8027 40.4552 13.3764 40.8227 13.0915C40.5402 13.4928 40.1277 14.1101 40.0518 14.4065C39.9753 14.7081 39.9846 14.8064 40.0215 14.8618C40.0525 14.9081 40.0987 14.9125 40.1264 14.9151C40.1301 14.9158 40.1351 14.9158 40.1388 14.9164C40.1406 14.9235 40.1419 14.937 40.14 14.9627C40.124 15.1968 40.0764 15.4225 40.0308 15.6405C39.971 15.9221 39.915 16.1883 39.9241 16.4635C39.9358 16.8397 40.0265 17.2654 40.0796 17.4859C40.1493 17.7747 40.1973 17.9187 40.2332 17.9914C40.2683 18.0634 40.2917 18.0634 40.3109 18.0634C40.3348 18.0634 40.3762 18.0466 40.3786 17.9836C40.4237 16.7072 41.4881 14.0779 42.1049 13.7204C42.19 13.6715 42.3071 13.6239 42.3873 13.6728C42.4633 13.7191 42.5064 13.8541 42.5064 14.0425C42.5064 14.1904 42.111 14.7106 41.8225 15.09C41.6577 15.3061 41.5024 15.5106 41.4153 15.6482C41.2327 15.9343 41.0879 16.5651 41.0818 16.5921C41.0768 16.614 41.083 16.6372 41.099 16.6532C41.1144 16.6693 41.1372 16.6751 41.1582 16.6687Z" fill="#EE1D24"/>
<path d="M32.5608 43.782V60.8106C32.3443 60.4266 32.039 59.9541 31.635 59.4782C30.417 58.0436 28.882 57.2855 27.1953 57.2855H16.0325C12.7472 57.2855 9.86523 54.2806 9.86523 50.8552V32.4004H23.7416V40.1835L23.3494 40.8633L22.7357 36.7332C22.7302 36.7023 22.7048 36.6791 22.6753 36.6785C22.6438 36.6772 22.6191 36.7003 22.6136 36.7305L21.8451 40.9655C21.8093 40.8575 21.7749 40.6562 21.7501 40.5109C21.7052 40.2447 21.6626 39.9939 21.5873 39.8736C21.5226 39.7688 21.3968 39.6563 21.2642 39.5374C21.1168 39.4055 20.965 39.2685 20.9133 39.1567C20.8768 39.0769 20.8744 38.9239 20.872 38.7753C20.8688 38.612 20.8664 38.4571 20.822 38.3542C20.698 38.07 20.0363 37.4655 19.9419 37.3806C19.9209 37.3607 19.9013 37.3523 19.8852 37.3523C19.8408 37.3523 19.8173 37.4115 19.8345 37.4572C19.9351 37.8095 20.0153 38.1118 20.0702 38.349C20.125 38.5863 20.1553 38.758 20.1571 38.848C20.1584 38.9278 20.151 39.0198 20.1436 39.1174C20.1325 39.2532 20.1214 39.3933 20.1343 39.5129C20.1578 39.7361 20.262 39.9367 20.3625 40.1308C20.4908 40.3791 20.6123 40.6131 20.5518 40.8652C20.5106 41.0362 20.5629 41.2973 20.6092 41.4728L17.3171 39.0037C17.2925 38.985 17.2592 38.9882 17.2375 39.0107C17.216 39.0333 17.2135 39.0679 17.2314 39.0936L19.7125 42.6251L19.6255 42.7724C19.4516 42.5923 18.9101 42.0721 18.4273 42.0297C18.339 42.022 18.2373 42.0593 18.1386 42.0947C18.0406 42.13 17.9395 42.1661 17.8722 42.1512C17.7797 42.1307 17.6514 42.0233 17.5275 41.9191C17.3467 41.7667 17.1605 41.6098 16.9946 41.6362C16.4679 41.7217 15.9216 41.559 15.9159 41.5578C15.8956 41.5513 15.8734 41.5571 15.8574 41.5718C15.8413 41.5867 15.8339 41.6091 15.8383 41.631C15.8419 41.6536 15.9449 42.186 16.9039 42.3024C17.0427 42.3191 17.2179 42.5236 17.372 42.7037C17.5145 42.8695 17.6496 43.0264 17.7815 43.0856C18.4273 43.3743 19.057 43.7479 19.2154 43.8437L19.1938 43.951L14.775 44.6076C14.7448 44.6121 14.7219 44.6391 14.7219 44.6707C14.7219 44.7028 14.7435 44.7298 14.7738 44.7349L19.2086 45.4648L19.2432 45.6146C19.0791 45.6365 18.6635 45.7059 18.3328 45.8789C18.1269 45.9863 17.977 46.1413 17.8451 46.2775C17.7513 46.3747 17.6699 46.4583 17.5934 46.4968C17.5386 46.5251 17.422 46.5444 17.2986 46.5643C17.1173 46.5946 16.9119 46.628 16.7534 46.7065C16.2564 46.9508 15.9024 47.5411 15.8876 47.5662C15.8734 47.5906 15.8758 47.6214 15.8937 47.6427C15.9122 47.6645 15.9412 47.6703 15.9659 47.6587C15.9714 47.6555 16.5339 47.3835 17.0279 47.244C17.1333 47.2144 17.3621 47.2169 17.5459 47.2196C17.7377 47.2215 17.858 47.2221 17.9166 47.2029C18.0831 47.1489 18.2706 47.0698 18.4519 46.9939C18.6523 46.9103 18.8416 46.8305 18.9773 46.7945C19.1642 46.7437 19.5047 46.763 19.6761 46.7772L17.2388 50.4006C17.2215 50.4263 17.2246 50.4617 17.2468 50.4835C17.269 50.5061 17.3029 50.5074 17.327 50.488L20.7024 47.7667L20.8374 47.8575C20.7036 48.0471 20.2805 48.6631 20.2274 48.946C20.2095 49.0407 20.2411 49.1654 20.2743 49.2971C20.3008 49.4033 20.328 49.5126 20.3194 49.5763C20.3015 49.7087 20.1929 49.9125 20.0974 50.0925C20.024 50.2315 19.9549 50.3621 19.9209 50.4649C19.8223 50.7697 19.7661 51.8352 19.7637 51.8809C19.7619 51.913 19.7834 51.9413 19.8142 51.9471C19.8444 51.9529 19.8746 51.9349 19.8839 51.904C19.8852 51.8996 20.0171 51.477 20.2158 51.1638C20.2824 51.0597 20.3181 50.953 20.3526 50.85C20.4001 50.7086 20.4414 50.5858 20.5537 50.5067C20.9608 50.2186 21.0631 49.8573 21.1451 49.5666C21.1772 49.4535 21.2074 49.3467 21.2519 49.2625C21.3382 49.0972 21.7822 48.6503 22.0259 48.4143L22.7012 52.8023C22.7061 52.8332 22.7319 52.8563 22.7622 52.8563C22.7925 52.8563 22.8183 52.8332 22.8232 52.8023L23.4782 48.476C23.6287 48.7867 23.9395 49.4072 24.1191 49.6271C24.1635 49.6817 24.2411 49.7337 24.3225 49.7891C24.4162 49.8514 24.5217 49.9228 24.5495 49.9827C24.5877 50.0669 24.5828 50.2154 24.5779 50.3588C24.5717 50.5292 24.5649 50.7054 24.6284 50.8224C24.7685 51.0816 25.44 51.4641 25.5165 51.5066C25.5399 51.5201 25.5689 51.5156 25.588 51.4963C25.6078 51.477 25.6127 51.4468 25.601 51.4217C25.5973 51.4147 25.2624 50.6925 25.205 50.3775C25.1927 50.3086 25.21 50.1833 25.2286 50.0501C25.2661 49.7744 25.3136 49.4302 25.1644 49.2104C24.9269 48.8625 24.8319 48.1282 24.8011 47.8221L28.3004 50.4173C28.3251 50.436 28.3584 50.4328 28.3799 50.4109C28.4009 50.3884 28.404 50.3537 28.3862 50.328L25.9464 46.7624C26.2424 46.9283 26.7099 47.1694 26.9443 47.1739C27.0213 47.1739 27.1428 47.1308 27.2711 47.0838C27.3877 47.0408 27.5196 46.9919 27.5782 46.9971C27.7213 47.0093 27.8767 47.1746 28.0272 47.334C28.1672 47.4838 28.3128 47.6381 28.465 47.6858C28.5434 47.7102 28.6736 47.7185 28.8172 47.7185C29.1434 47.7185 29.5406 47.6749 29.5647 47.6716C29.5918 47.6691 29.614 47.6472 29.6189 47.6189C29.6233 47.5906 29.6091 47.5623 29.5845 47.55C29.5771 47.5462 28.8715 47.1952 28.6741 47.0421C28.5792 46.9688 28.4669 46.8299 28.3473 46.682C28.1728 46.4672 27.9927 46.2447 27.8212 46.1663C27.7256 46.1232 27.5844 46.1245 27.4346 46.1264C27.2914 46.1284 27.1434 46.1296 27.0707 46.0885C26.898 45.9915 26.5125 45.5246 26.3134 45.2712L30.1278 44.6012C30.1567 44.596 30.1784 44.567 30.179 44.5356C30.1796 44.5047 30.1586 44.4751 30.129 44.4687L26.7931 43.782H32.5608Z" fill="#EE1D24"/>
<path d="M55.1339 50.0672V50.8555C55.1339 54.4011 52.5887 57.2858 49.46 57.2858H38.2972C36.0368 57.2858 34.5833 58.4799 33.7618 59.4817C33.4004 59.9228 33.1278 60.3619 32.9316 60.7297V50.4253C33.1834 50.4028 33.5589 49.9765 34.2065 49.9765C35.0977 49.9765 35.5078 50.6021 35.974 50.5983C36.4212 50.595 37.213 49.9784 37.6601 49.9765C38.1165 49.9745 38.93 50.6009 39.387 50.5983C39.8292 50.5957 40.61 49.9817 41.0521 49.9765C41.5233 49.9713 42.3694 50.6028 42.8407 50.5983C43.2877 50.5938 44.079 49.9745 44.5261 49.9765C44.9634 49.9784 45.7337 50.6009 46.1709 50.5983C46.5934 50.5957 47.331 49.9874 47.7535 49.9765C48.2394 49.9643 49.1183 50.6106 49.6037 50.5983C50.0268 50.5873 50.7637 49.9874 51.1868 49.9765C51.6728 49.9643 52.5511 50.6073 53.0369 50.5983C53.4742 50.59 54.2446 49.988 54.6818 49.9765C54.7836 49.974 54.9766 50.0061 55.1339 50.0672Z" fill="white"/>
<path d="M55.1339 32.208V49.2315C54.9766 49.1704 54.7836 49.1382 54.6818 49.1408C54.2446 49.1523 53.4742 49.7542 53.0369 49.7626C52.5511 49.7715 51.6728 49.1286 51.1868 49.1408C50.7637 49.1517 50.0268 49.7516 49.6037 49.7626C49.1183 49.7749 48.2394 49.1286 47.7535 49.1408C47.331 49.1517 46.5934 49.76 46.1709 49.7626C45.7337 49.7652 44.9634 49.1427 44.5261 49.1408C44.079 49.1388 43.2877 49.7581 42.8407 49.7626C42.3694 49.7671 41.5233 49.1356 41.0521 49.1408C40.61 49.1459 39.8292 49.76 39.387 49.7626C38.93 49.7652 38.1165 49.1388 37.6601 49.1408C37.213 49.1427 36.4212 49.7593 35.974 49.7626C35.5078 49.7665 35.0977 49.1408 34.2065 49.1408C33.5589 49.1408 33.1834 49.567 32.9316 49.5896V43.7825H41.2575V32.208H55.1339Z" fill="white"/>
<path d="M32.5608 11.7161V20.2477H23.7416V32.0151H9.86523V3.01465H32.5608V10.6396C32.0859 10.0506 30.319 7.98462 28.8653 7.90166C28.0741 7.85664 26.2189 9.46611 26.2189 9.46611C26.2189 9.46611 23.6595 6.8728 22.4464 6.96929C20.3391 7.13711 17.961 9.93809 17.961 9.93809C17.4096 9.9915 16.4759 8.44116 14.8065 8.64888C12.6559 8.91699 10.2766 11.417 10.2815 12.3816C10.2815 12.3816 12.8871 9.53042 14.696 9.46611C16.9039 9.3877 19.6706 12.5745 19.6706 12.5745C19.8969 12.0601 18.339 10.702 18.5087 10.4429C19.2382 9.32725 21.3591 7.88169 22.5063 7.94473C24.6593 8.06304 27.1416 12.1205 27.2532 11.8884C27.4382 11.5026 26.4145 10.4255 26.5915 9.98057C26.8282 9.38511 28.269 8.8083 28.8863 8.84497C30.2888 8.92793 32.0803 11.1007 32.5608 11.7161Z" fill="white"/>
<path d="M55.1339 49.2313V50.0672C54.9766 50.0061 54.7836 49.974 54.6818 49.9765C54.2446 49.988 53.4742 50.59 53.0369 50.5983C52.5511 50.6073 51.6728 49.9643 51.1868 49.9765C50.7637 49.9874 50.0268 50.5873 49.6037 50.5983C49.1183 50.6106 48.2394 49.9643 47.7535 49.9765C47.331 49.9874 46.5934 50.5957 46.1709 50.5983C45.7337 50.6009 44.9634 49.9784 44.5261 49.9765C44.079 49.9745 43.2877 50.5938 42.8407 50.5983C42.3694 50.6028 41.5233 49.9713 41.0521 49.9765C40.61 49.9817 39.8292 50.5957 39.387 50.5983C38.93 50.6009 38.1165 49.9745 37.6601 49.9765C37.213 49.9784 36.4212 50.595 35.974 50.5983C35.5078 50.6021 35.0977 49.9765 34.2065 49.9765C33.5589 49.9765 33.1834 50.4028 32.9316 50.4253V49.5894C33.1834 49.5668 33.5589 49.1406 34.2065 49.1406C35.0977 49.1406 35.5078 49.7662 35.974 49.7623C36.4212 49.7591 37.213 49.1425 37.6601 49.1406C38.1165 49.1386 38.93 49.765 39.387 49.7623C39.8292 49.7598 40.61 49.1457 41.0521 49.1406C41.5233 49.1354 42.3694 49.7669 42.8407 49.7623C43.2877 49.7578 44.079 49.1386 44.5261 49.1406C44.9634 49.1425 45.7337 49.765 46.1709 49.7623C46.5934 49.7598 47.331 49.1515 47.7535 49.1406C48.2394 49.1283 49.1183 49.7746 49.6037 49.7623C50.0268 49.7514 50.7637 49.1515 51.1868 49.1406C51.6728 49.1283 52.5511 49.7713 53.0369 49.7623C53.4742 49.754 54.2446 49.1521 54.6818 49.1406C54.7836 49.138 54.9766 49.1701 55.1339 49.2313Z" fill="#007DC6"/>
<path d="M32.5625 10.6393V11.7157C32.0821 11.1003 30.2905 8.92758 28.8881 8.84462C28.2707 8.80795 26.83 9.38476 26.5932 9.98021C26.4162 10.4252 27.44 11.5022 27.255 11.8881C27.1434 12.1202 24.6611 8.06269 22.508 7.94437C21.3609 7.88134 19.2399 9.32689 18.5104 10.4425C18.3408 10.7017 19.8987 12.0598 19.6724 12.5742C19.6724 12.5742 16.9057 9.38734 14.6978 9.46576C12.8889 9.53007 10.2832 12.3812 10.2832 12.3812C10.2783 11.4167 12.6577 8.91664 14.8083 8.64853C16.4777 8.44081 17.4114 9.99115 17.9628 9.93773C17.9628 9.93773 20.3409 7.13676 22.4482 6.96894C23.6613 6.87245 26.2207 9.46576 26.2207 9.46576C26.2207 9.46576 28.0759 7.85629 28.8671 7.90131C30.3207 7.98427 32.0876 10.0503 32.5625 10.6393Z" fill="#007DC6"/>
<path d="M36.8967 33.2475C36.6846 33.2436 36.4219 32.7704 36.4219 32.5479C36.4219 32.3472 36.5625 32.1434 36.6537 31.8328C36.7901 31.3602 36.8967 30.8252 36.8967 30.8252C36.8967 30.8252 37.0559 31.3692 37.2156 31.8334C37.3224 32.1408 37.4518 32.3704 37.4518 32.5401C37.4518 32.7684 37.1169 33.252 36.8967 33.2475Z" fill="white"/>
<path d="M36.8967 41.0922C36.6846 41.0884 36.4219 40.6151 36.4219 40.3926C36.4219 40.192 36.5625 39.9882 36.6537 39.6775C36.7901 39.205 36.8967 38.6699 36.8967 38.6699C36.8967 38.6699 37.0559 39.214 37.2156 39.6782C37.3224 39.9855 37.4518 40.2151 37.4518 40.3849C37.4518 40.6125 37.1169 41.0968 36.8967 41.0922Z" fill="white"/>
<path d="M35.2734 37.4271C34.8732 37.4271 34.7578 36.7063 34.7578 36.3122C34.7578 35.9546 34.8985 35.9129 34.9898 35.3611C35.126 34.52 35.2328 33.2476 35.2328 33.2476C35.2328 33.2476 35.3918 34.5361 35.5516 35.3611C35.6582 35.9083 35.7878 35.9958 35.7878 36.2974C35.7878 36.7038 35.644 37.4271 35.2734 37.4271Z" fill="white"/>
<path d="M33.4844 41.6068C33.0848 41.6068 32.9688 40.9708 32.9688 40.623C32.9688 40.3073 33.11 40.2712 33.2001 39.7838C33.3371 39.0417 33.4437 37.9177 33.4437 37.9177C33.4437 37.9177 33.6028 39.0553 33.7625 39.7844C33.8692 40.2673 33.9987 40.3439 33.9987 40.6101C33.9987 40.9689 33.855 41.6068 33.4844 41.6068Z" fill="white"/>
<path d="M31.5965 33.6977C31.734 33.225 31.8407 32.6901 31.8407 32.6901C31.8407 32.6901 31.9992 33.234 32.1596 33.6983C32.2657 34.0057 32.3958 34.2353 32.3958 34.405C32.3958 34.6326 32.0603 35.1168 31.8407 35.1123C31.6274 35.1085 31.3652 34.6352 31.3652 34.4127C31.3652 34.212 31.5065 34.0082 31.5965 33.6977Z" fill="white"/>
<path d="M30.2391 40.1922C30.3766 39.7196 30.4833 39.1846 30.4833 39.1846C30.4833 39.1846 30.6418 39.7285 30.8022 40.1928C30.9083 40.5002 31.0384 40.7298 31.0384 40.8995C31.0384 41.1271 30.7029 41.6113 30.4833 41.6068C30.27 41.603 30.0078 41.1297 30.0078 40.9072C30.0078 40.7066 30.1491 40.5027 30.2391 40.1922Z" fill="white"/>
<path d="M28.6981 36.0311C28.8356 34.967 28.9423 33.3549 28.9423 33.3549C28.9423 33.3549 29.1009 34.9862 29.2612 36.0331C29.3673 36.7256 29.4974 36.8349 29.4974 37.2181C29.4974 37.7326 29.3536 38.6489 28.9824 38.6489C28.5828 38.6489 28.4668 37.7351 28.4668 37.2362C28.4668 36.7835 28.608 36.7314 28.6981 36.0311Z" fill="white"/>
<path d="M26.7234 32.3475C26.861 31.8749 26.9677 31.3398 26.9677 31.3398C26.9677 31.3398 27.1262 31.8838 27.2865 32.3481C27.3926 32.6555 27.5227 32.8851 27.5227 33.0548C27.5227 33.2824 27.1872 33.7666 26.9677 33.7621C26.7543 33.7583 26.4922 33.285 26.4922 33.0625C26.4922 32.8619 26.6333 32.658 26.7234 32.3475Z" fill="white"/>
<path d="M26.8447 41.4784C26.6313 41.4746 26.3691 41.0013 26.3691 40.7788C26.3691 40.5782 26.5104 40.3743 26.6005 40.0638C26.7379 39.5912 26.8447 39.0562 26.8447 39.0562C26.8447 39.0562 27.0031 39.6002 27.1635 40.0645C27.2696 40.3718 27.3997 40.6014 27.3997 40.7711C27.3997 40.9987 27.0642 41.4829 26.8447 41.4784Z" fill="white"/>
<path d="M39.0971 26.5491C39.0971 26.5491 38.2644 29.5713 31.8203 29.5713C25.4063 29.5713 24.543 26.5491 24.543 26.5491H39.0971Z" fill="white"/>
<path d="M33.484 41.6069C33.8546 41.6069 33.9983 40.969 33.9983 40.6103C33.9983 40.344 33.8688 40.2675 33.7621 39.7846C33.6024 39.0555 33.4433 37.9179 33.4433 37.9179C33.4433 37.9179 33.3367 39.0419 33.1997 39.784C33.1096 40.2714 32.9683 40.3074 32.9683 40.6231C32.9683 40.971 33.0844 41.6069 33.484 41.6069ZM31.8404 35.1124C32.06 35.1169 32.3954 34.6327 32.3954 34.4051C32.3954 34.2354 32.2654 34.0058 32.1592 33.6983C31.9989 33.2341 31.8404 32.6901 31.8404 32.6901C31.8404 32.6901 31.7337 33.2251 31.5962 33.6978C31.5061 34.0083 31.3649 34.2121 31.3649 34.4128C31.3649 34.6353 31.6271 35.1086 31.8404 35.1124ZM30.4836 41.6069C30.7031 41.6114 31.0386 41.1272 31.0386 40.8996C31.0386 40.7299 30.9086 40.5003 30.8024 40.1929C30.6421 39.7286 30.4836 39.1847 30.4836 39.1847C30.4836 39.1847 30.3769 39.7197 30.2394 40.1923C30.1493 40.5028 30.0081 40.7067 30.0081 40.9073C30.0081 41.1298 30.2703 41.6031 30.4836 41.6069ZM28.9819 38.649C29.3531 38.649 29.4969 37.7327 29.4969 37.2183C29.4969 36.8351 29.3668 36.7257 29.2607 36.0332C29.1003 34.9863 28.9418 33.355 28.9418 33.355C28.9418 33.355 28.8351 34.9671 28.6976 36.0312C28.6075 36.7315 28.4663 36.7836 28.4663 37.2363C28.4663 37.7353 28.5823 38.649 28.9819 38.649ZM26.9683 33.762C27.1878 33.7665 27.5233 33.2823 27.5233 33.0547C27.5233 32.885 27.3932 32.6554 27.2871 32.348C27.1268 31.8837 26.9683 31.3397 26.9683 31.3397C26.9683 31.3397 26.8616 31.8748 26.724 32.3474C26.6339 32.6579 26.4928 32.8618 26.4928 33.0624C26.4928 33.2849 26.7549 33.7582 26.9683 33.762ZM26.8449 41.4783C27.0645 41.4828 27.4 40.9986 27.4 40.771C27.4 40.6013 27.2699 40.3717 27.1638 40.0644C27.0034 39.6001 26.8449 39.0561 26.8449 39.0561C26.8449 39.0561 26.7382 39.5911 26.6007 40.0637C26.5107 40.3742 26.3694 40.5781 26.3694 40.7787C26.3694 41.0012 26.6316 41.4745 26.8449 41.4783ZM24.5427 26.5492C24.5427 26.5492 25.4061 29.5714 31.8201 29.5714C38.2642 29.5714 39.0969 26.5492 39.0969 26.5492H24.5427ZM36.4221 40.3929C36.4221 40.6154 36.6848 41.0887 36.897 41.0925C37.1172 41.0971 37.452 40.6128 37.452 40.3852C37.452 40.2154 37.3226 39.9858 37.2158 39.6785C37.0561 39.2143 36.897 38.6702 36.897 38.6702C36.897 38.6702 36.7903 39.2053 36.654 39.6778C36.5627 39.9885 36.4221 40.1923 36.4221 40.3929ZM36.4221 32.548C36.4221 32.7705 36.6848 33.2438 36.897 33.2477C37.1172 33.2521 37.452 32.7686 37.452 32.5403C37.452 32.3705 37.3226 32.141 37.2158 31.8336C37.0561 31.3693 36.897 30.8253 36.897 30.8253C36.897 30.8253 36.7903 31.3604 36.654 31.833C36.5627 32.1436 36.4221 32.3474 36.4221 32.548ZM35.2725 37.4272C35.6431 37.4272 35.7869 36.7039 35.7869 36.2975C35.7869 35.9959 35.6573 35.9084 35.5507 35.3612C35.3909 34.5362 35.2319 33.2477 35.2319 33.2477C35.2319 33.2477 35.1251 34.5201 34.9889 35.3612C34.8976 35.913 34.7569 35.9547 34.7569 36.3123C34.7569 36.7064 34.8723 37.4272 35.2725 37.4272ZM35.9929 21.9516C35.7746 21.9349 34.5719 23.3206 34.4714 23.1733C33.9964 22.475 32.2154 20.5485 32.0587 20.8379C31.7337 21.4378 28.8684 23.4428 28.8684 23.4428C28.8684 23.4428 28.2701 22.7232 28.0376 22.3374C28.0376 22.3374 25.9198 24.2826 25.9198 25.1243C25.9198 25.3918 26.0512 26.1023 26.2078 26.1531C26.2078 26.1531 26.6408 25.7236 27.1304 25.404C27.6238 25.0825 27.9433 24.4452 28.1967 24.4382C28.4744 24.4305 29.6165 25.6812 29.6165 25.6812C29.6165 25.6812 31.1157 23.0004 31.8676 23.2132C33.3323 23.6286 33.9478 25.757 34.0601 25.5744C34.3808 25.0542 34.9222 25.069 35.2194 24.8639C35.3588 24.768 35.6413 24.372 35.8078 24.3739C36.5374 24.3816 37.0203 26.1531 37.0203 26.1531C37.0203 26.1531 37.637 25.5558 37.637 24.7385C37.637 23.8672 36.3369 21.9786 35.9929 21.9516ZM41.2572 43.7823H23.7422V20.2476H41.2572V43.7823Z" fill="#007DC6"/>
<path d="M34.4715 23.1733C34.572 23.3206 35.7747 21.9349 35.993 21.9516C36.3371 21.9786 37.6371 23.8671 37.6371 24.7384C37.6371 25.5557 37.0205 26.1531 37.0205 26.1531C37.0205 26.1531 36.5375 24.3816 35.8079 24.3738C35.6415 24.3719 35.3589 24.768 35.2196 24.8638C34.9223 25.069 34.3809 25.0542 34.0602 25.5744C33.9479 25.757 33.3324 23.6286 31.8677 23.2132C31.1158 23.0004 29.6167 25.6811 29.6167 25.6811C29.6167 25.6811 28.4745 24.4304 28.1969 24.4381C27.9435 24.4452 27.624 25.0824 27.1306 25.404C26.641 25.7235 26.208 26.1531 26.208 26.1531C26.0513 26.1023 25.9199 25.3918 25.9199 25.1242C25.9199 24.2825 28.0378 22.3374 28.0378 22.3374C28.2703 22.7232 28.8685 23.4427 28.8685 23.4427C28.8685 23.4427 31.7338 21.4378 32.0589 20.8379C32.2156 20.5485 33.9966 22.475 34.4715 23.1733Z" fill="#EE1C24"/>
</svg>
