<svg width="206" height="46" viewBox="0 0 206 46" fill="none" xmlns="http://www.w3.org/2000/svg">
<g clip-path="url(#clip0_1_815)">
<path d="M0 9.62791V0H46V26.7442C28.8471 28.3916 13.1356 20.3577 0 9.62791Z" fill="#E70023"/>
<path d="M46 31.0233V46H0V31.0233C14.1578 38.533 31.8831 38.2656 46 31.0233Z" fill="#E70023"/>
</g>
<path d="M68.3388 17.4325L65.0675 13.0923H64.3317V17.4325H62.179V7.25072H64.3317V11.3175H64.7642L68.1449 7.25072H70.8246L66.8523 11.9737L71.0085 17.4325H68.3388Z" fill="#1E1E1E"/>
<path d="M80.8734 12.3416C80.8734 13.4519 80.6629 14.3965 80.242 15.1754C79.8244 15.9543 79.2543 16.5492 78.5318 16.9602C77.8126 17.3679 77.0038 17.5717 76.1056 17.5717C75.2008 17.5717 74.3888 17.3662 73.6696 16.9553C72.9503 16.5443 72.3819 15.9493 71.9643 15.1705C71.5467 14.3916 71.3379 13.4486 71.3379 12.3416C71.3379 11.2313 71.5467 10.2867 71.9643 9.50782C72.3819 8.72894 72.9503 8.13566 73.6696 7.72799C74.3888 7.317 75.2008 7.11151 76.1056 7.11151C77.0038 7.11151 77.8126 7.317 78.5318 7.72799C79.2543 8.13566 79.8244 8.72894 80.242 9.50782C80.6629 10.2867 80.8734 11.2313 80.8734 12.3416ZM78.6909 12.3416C78.6909 11.6224 78.5832 11.0159 78.3677 10.522C78.1556 10.0282 77.8556 9.65365 77.4679 9.39844C77.0801 9.14324 76.626 9.01563 76.1056 9.01563C75.5853 9.01563 75.1312 9.14324 74.7434 9.39844C74.3556 9.65365 74.054 10.0282 73.8386 10.522C73.6265 11.0159 73.5204 11.6224 73.5204 12.3416C73.5204 13.0608 73.6265 13.6674 73.8386 14.1612C74.054 14.6551 74.3556 15.0296 74.7434 15.2848C75.1312 15.54 75.5853 15.6676 76.1056 15.6676C76.626 15.6676 77.0801 15.54 77.4679 15.2848C77.8556 15.0296 78.1556 14.6551 78.3677 14.1612C78.5832 13.6674 78.6909 13.0608 78.6909 12.3416Z" fill="#1E1E1E"/>
<path d="M82.468 7.25072H85.1229L87.9268 14.0916H88.0462L90.8501 7.25072H93.505V17.4325H91.4169V10.8054H91.3324L88.6974 17.3828H87.2756L84.6406 10.7805H84.5561V17.4325H82.468V7.25072Z" fill="#1E1E1E"/>
<path d="M103.934 7.25072V17.4325H101.806V9.00072H97.6898V17.4325H95.562V7.25072H103.934Z" fill="#1E1E1E"/>
<path d="M107.739 17.4325H105.432L108.947 7.25072H111.721L115.231 17.4325H112.924L110.374 9.57742H110.294L107.739 17.4325ZM107.594 13.4304H113.043V15.1108H107.594V13.4304Z" fill="#1E1E1E"/>
<path d="M116.456 17.4325V7.25072H118.609V11.4517H122.979V7.25072H125.127V17.4325H122.979V13.2266H118.609V17.4325H116.456Z" fill="#1E1E1E"/>
<path d="M126.902 7.25072H129.049V13.6541H129.134L133.534 7.25072H135.418V17.4325H133.265V11.0242H133.191L128.766 17.4325H126.902V7.25072Z" fill="#1E1E1E"/>
<path d="M145.012 17.4325H142.864V9.01066H141.412C140.998 9.01066 140.653 9.07198 140.378 9.19461C140.107 9.31393 139.903 9.48959 139.767 9.7216C139.631 9.9536 139.563 10.2386 139.563 10.5767C139.563 10.9115 139.631 11.1915 139.767 11.4169C139.903 11.6423 140.107 11.8113 140.378 11.924C140.65 12.0367 140.992 12.093 141.403 12.093H143.739V13.8232H141.055C140.276 13.8232 139.609 13.6939 139.056 13.4354C138.502 13.1769 138.08 12.8056 137.788 12.3217C137.497 11.8345 137.351 11.2528 137.351 10.5767C137.351 9.90389 137.493 9.3189 137.778 8.82174C138.067 8.32127 138.483 7.93514 139.026 7.66336C139.573 7.38826 140.231 7.25072 141 7.25072H145.012V17.4325ZM139.518 12.799H141.84L139.364 17.4325H136.988L139.518 12.799Z" fill="#1E1E1E"/>
<path d="M71.1626 29.8153H68.9851C68.9453 29.5336 68.8641 29.2834 68.7415 29.0646C68.6188 28.8426 68.4614 28.6537 68.2692 28.4979C68.0769 28.3421 67.8549 28.2228 67.603 28.1399C67.3544 28.0571 67.0843 28.0156 66.7926 28.0156C66.2656 28.0156 65.8066 28.1465 65.4155 28.4084C65.0244 28.6669 64.7211 29.0448 64.5057 29.5419C64.2902 30.0358 64.1825 30.6357 64.1825 31.3416C64.1825 32.0675 64.2902 32.6773 64.5057 33.1712C64.7244 33.665 65.0294 34.0379 65.4205 34.2898C65.8116 34.5417 66.264 34.6676 66.7777 34.6676C67.0661 34.6676 67.3329 34.6295 67.5781 34.5533C67.8267 34.477 68.0471 34.366 68.2393 34.2202C68.4316 34.071 68.5907 33.8904 68.7166 33.6783C68.8459 33.4662 68.9354 33.2242 68.9851 32.9524L71.1626 32.9624C71.1063 33.4297 70.9654 33.8805 70.7401 34.3146C70.518 34.7455 70.218 35.1316 69.8402 35.473C69.4657 35.8111 69.0182 36.0796 68.4979 36.2784C67.9808 36.474 67.3958 36.5717 66.7429 36.5717C65.8348 36.5717 65.0227 36.3662 64.3068 35.9553C63.5942 35.5443 63.0308 34.9493 62.6165 34.1705C62.2055 33.3916 62 32.4486 62 31.3416C62 30.2313 62.2088 29.2867 62.6264 28.5078C63.044 27.7289 63.6108 27.1357 64.3267 26.728C65.0426 26.317 65.848 26.1115 66.7429 26.1115C67.3329 26.1115 67.8797 26.1944 68.3835 26.3601C68.8906 26.5258 69.3397 26.7678 69.7308 27.0859C70.1219 27.4008 70.4401 27.7869 70.6854 28.2443C70.9339 28.7017 71.093 29.2254 71.1626 29.8153Z" fill="#1E1E1E"/>
<path d="M72.3185 28.0256V26.2507H80.6808V28.0256H77.5636V36.4325H75.4357V28.0256H72.3185Z" fill="#1E1E1E"/>
<path d="M82.5687 36.4325H80.2619L83.7768 26.2507H86.551L90.0609 36.4325H87.7541L85.2037 28.5774H85.1241L82.5687 36.4325ZM82.4245 32.4304H87.8734V34.1108H82.4245V32.4304Z" fill="#1E1E1E"/>
<path d="M91.2864 36.4325V26.2507H93.4391V30.4517H97.8091V26.2507H99.9569V36.4325H97.8091V32.2266H93.4391V36.4325H91.2864Z" fill="#1E1E1E"/>
<path d="M101.18 38.8885V34.7173H101.871C102.106 34.5483 102.322 34.3097 102.517 34.0014C102.713 33.6899 102.88 33.2607 103.019 32.7138C103.159 32.1636 103.258 31.4444 103.318 30.5561L103.606 26.2507H110.343V34.7173H111.456V38.8786H109.388V36.4325H103.248V38.8885H101.18ZM104.357 34.7173H108.274V28.0256H105.545L105.386 30.5561C105.343 31.2289 105.271 31.8255 105.172 32.3459C105.076 32.8662 104.958 33.322 104.819 33.7131C104.683 34.1009 104.529 34.4356 104.357 34.7173Z" fill="#1E1E1E"/>
<path d="M114.52 36.4325H112.213L115.728 26.2507H118.502L122.012 36.4325H119.705L117.155 28.5774H117.075L114.52 36.4325ZM114.376 32.4304H119.825V34.1108H114.376V32.4304Z" fill="#1E1E1E"/>
<path d="M123.238 36.4325V26.2507H127.255C128.027 26.2507 128.685 26.3982 129.228 26.6932C129.772 26.9849 130.186 27.3909 130.471 27.9112C130.76 28.4283 130.904 29.0249 130.904 29.701C130.904 30.3771 130.758 30.9737 130.466 31.4908C130.175 32.0078 129.752 32.4105 129.199 32.6989C128.648 32.9872 127.982 33.1314 127.2 33.1314H124.64V31.4063H126.852C127.266 31.4063 127.608 31.335 127.876 31.1925C128.148 31.0466 128.35 30.8461 128.483 30.5909C128.618 30.3324 128.686 30.0358 128.686 29.701C128.686 29.3629 128.618 29.068 128.483 28.8161C128.35 28.5608 128.148 28.3636 127.876 28.2244C127.604 28.0819 127.26 28.0107 126.842 28.0107H125.39V36.4325H123.238Z" fill="#1E1E1E"/>
<path d="M131.914 28.0256V26.2507H140.276V28.0256H137.159V36.4325H135.031V28.0256H131.914Z" fill="#1E1E1E"/>
<path d="M154.25 31.3416C154.25 32.4519 154.04 33.3965 153.619 34.1754C153.201 34.9543 152.631 35.5492 151.909 35.9602C151.19 36.3679 150.381 36.5717 149.483 36.5717C148.578 36.5717 147.766 36.3662 147.047 35.9553C146.327 35.5443 145.759 34.9493 145.341 34.1705C144.924 33.3916 144.715 32.4486 144.715 31.3416C144.715 30.2313 144.924 29.2867 145.341 28.5078C145.759 27.7289 146.327 27.1357 147.047 26.728C147.766 26.317 148.578 26.1115 149.483 26.1115C150.381 26.1115 151.19 26.317 151.909 26.728C152.631 27.1357 153.201 27.7289 153.619 28.5078C154.04 29.2867 154.25 30.2313 154.25 31.3416ZM152.068 31.3416C152.068 30.6224 151.96 30.0159 151.745 29.522C151.533 29.0282 151.233 28.6537 150.845 28.3984C150.457 28.1432 150.003 28.0156 149.483 28.0156C148.962 28.0156 148.508 28.1432 148.12 28.3984C147.733 28.6537 147.431 29.0282 147.216 29.522C147.003 30.0159 146.897 30.6224 146.897 31.3416C146.897 32.0608 147.003 32.6674 147.216 33.1612C147.431 33.6551 147.733 34.0296 148.12 34.2848C148.508 34.54 148.962 34.6676 149.483 34.6676C150.003 34.6676 150.457 34.54 150.845 34.2848C151.233 34.0296 151.533 33.6551 151.745 33.1612C151.96 32.6674 152.068 32.0608 152.068 31.3416Z" fill="#1E1E1E"/>
<path d="M165.654 34.7124L165.53 38.8388H163.481V36.4325H162.765V34.7124H165.654ZM155.845 36.4325V26.2507H157.913V34.7024H162.149V26.2507H164.242V36.4325H155.845Z" fill="#1E1E1E"/>
<path d="M166.96 36.4325V26.2507H173.821V28.0256H169.113V30.4517H173.468V32.2266H169.113V34.6577H173.841V36.4325H166.96Z" fill="#1E1E1E"/>
<path d="M175.532 36.4325V26.2507H177.685V30.4517H182.055V26.2507H184.203V36.4325H182.055V32.2266H177.685V36.4325H175.532Z" fill="#1E1E1E"/>
<path d="M192.138 36.4325L188.866 32.0923H188.131V36.4325H185.978V26.2507H188.131V30.3175H188.563L191.944 26.2507H194.623L190.651 30.9737L194.807 36.4325H192.138Z" fill="#1E1E1E"/>
<path d="M197.645 36.4325H195.338L198.853 26.2507H201.627L205.137 36.4325H202.83L200.28 28.5774H200.2L197.645 36.4325ZM197.501 32.4304H202.95V34.1108H197.501V32.4304Z" fill="#1E1E1E"/>
<defs>
<clipPath id="clip0_1_815">
<rect width="46" height="46" rx="4" fill="white"/>
</clipPath>
</defs>
</svg>
